<?xml version="1.0" encoding="utf-8"?>
<!-- Generator: Adobe Illustrator 24.3.0, SVG Export Plug-In . SVG Version: 6.00 Build 0)  -->
<svg version="1.1" id="Layer_1" xmlns="http://www.w3.org/2000/svg" xmlns:xlink="http://www.w3.org/1999/xlink" x="0px" y="0px"
	 viewBox="0 0 2500 1339" style="enable-background:new 0 0 2500 1339;" xml:space="preserve">
<style type="text/css">
	.st0{fill:#3DDB85;}
	.st1{fill:none;}
</style>
<path class="st0" d="M1661.4,1005.9c-47.2,0-85.6-43.7-85.6-97.4c0-53.7,38.4-97.3,85.6-97.3c47.2,0,85.6,43.7,85.6,97.3
	C1747,962.2,1708.6,1005.9,1661.4,1005.9 M715.1,1005.9c-47.2,0-85.6-43.7-85.6-97.4c0-53.7,38.4-97.3,85.6-97.3
	c47.2,0,85.6,43.7,85.6,97.3C800.7,962.2,762.3,1005.9,715.1,1005.9 M1692.1,419.4l171.1-337c9.8-19.4,4-44.1-13-55.3
	c-17-11.1-38.8-4.5-48.6,14.8l-173.2,341.2c-132.5-68.7-281.3-107.1-440.1-107.1s-307.6,38.3-440.1,107.1L574.9,42
	c-9.8-19.3-31.6-26-48.6-14.8c-17,11.2-22.9,35.9-13,55.3l171.1,337c-293.8,181.7-494.8,520-524.2,919.6h2056.1
	C2186.8,939.4,1985.9,601.1,1692.1,419.4"/>
<path class="st1" d="M547.7,547.7h1404.5V1339H547.7V547.7z"/>
</svg>
