<?xml version="1.0" encoding="utf-8"?>
<!-- Generator: Adobe Illustrator 24.3.0, SVG Export Plug-In . SVG Version: 6.00 Build 0)  -->
<svg version="1.1" id="Layer_1" xmlns="http://www.w3.org/2000/svg" xmlns:xlink="http://www.w3.org/1999/xlink" x="0px" y="0px"
	 viewBox="0 0 2500 699" style="enable-background:new 0 0 2500 699;" xml:space="preserve">
<style type="text/css">
	.st0{fill:#927FBB;}
</style>
<g id="Page-1">
	<g id="main" transform="translate(-25 -23)">
		<g id="nav" transform="translate(25 23)">
			<path id="logo" class="st0" d="M565,0H63.4C28.5,0,0.5,28,0.5,62.9v573.2c0,35,28,62.9,62.9,62.9H565c35,0,62.9-28,62.9-62.9
				V62.9C627.9,28,599.9,0,565,0z M592.9,636.1c0,15.7-12.2,28-28,28H63.4c-15.7,0-28-12.2-28-28V62.9c0-15.7,12.2-28,28-28H565
				c15.7,0,28,12.2,28,28V636.1L592.9,636.1z M157.8,594.2l78.6-69.9l-78.6-69.9V594.2z M440.9,311.1c-14-14-40.2-31.5-83.9-31.5
				c-47.2,0-96.1,12.2-131.1,24.5V104.9h-68.2v302.3l48.9-22.7c0,0,80.4-36.7,150.3-36.7c35,0,43.7,19.2,43.7,36.7v209.7h69.9V384.5
				C470.6,379.2,470.6,340.8,440.9,311.1z M348.3,218.4h69.9c31.5-36.7,47.2-73.4,52.4-113.6h-69.9
				C393.7,145,376.3,181.7,348.3,218.4z M2279.3,382.7V227.2h69.9V381c0,35,12.2,52.4,40.2,52.4c28,0,38.4-15.7,38.4-52.4V227.2
				h68.2v155.5c0,68.2-33.2,108.3-108.3,108.3S2279.3,450.9,2279.3,382.7z M1985.7,228.9h69.9v94.4l71.6-94.4h80.4l-87.4,101.4
				l94.4,157.3H2136l-61.2-103.1l-19.2,22.7v80.4h-69.9V228.9L1985.7,228.9z M1653.7,356.5c0-94.4,64.7-134.6,127.6-134.6
				s127.6,40.2,127.6,134.6S1844.2,491,1781.2,491C1718.3,491,1653.7,452.6,1653.7,356.5z M1837.2,356.5c0-47.2-21-76.9-57.7-76.9
				c-36.7,0-57.7,29.7-57.7,76.9s21,78.6,57.7,78.6C1816.2,435.1,1837.2,405.4,1837.2,356.5z M1372.3,228.9h101.4
				c66.4,0,106.6,22.7,106.6,83.9c0,40.2-17.5,64.7-50.7,75.1l54.2,99.6h-73.4l-50.7-89.1h-19.2v89.1h-68.2V228.9L1372.3,228.9z
				 M1471.9,344.3c28,0,41.9-8.7,41.9-29.7c0-21-12.2-29.7-41.9-29.7h-29.7v59.4L1471.9,344.3L1471.9,344.3z M1105,228.9h185.2v57.7
				h-115.3v41.9h82.1v54.2h-82.1v47.2h120.6v55.9H1105L1105,228.9L1105,228.9z M788.7,228.9h69.9V325h85.6v-96.1h69.9v258.6h-69.9
				V382.7h-85.6v104.9h-69.9L788.7,228.9L788.7,228.9z"/>
		</g>
	</g>
</g>
</svg>
