<?xml version="1.0" encoding="utf-8"?>
<!-- Generator: Adobe Illustrator 24.3.0, SVG Export Plug-In . SVG Version: 6.00 Build 0)  -->
<svg version="1.1" id="Layer_1" xmlns="http://www.w3.org/2000/svg" xmlns:xlink="http://www.w3.org/1999/xlink" x="0px" y="0px"
	 viewBox="0 0 256 300" style="enable-background:new 0 0 256 300;" xml:space="preserve">
<style type="text/css">
	.st0{fill:#D1D3D4;}
	.st1{fill:#F37726;}
</style>
<g>
	<path class="st0" d="M10.6,156.4v-0.2v-32.5h7.1v35.3c0.3,2.8,0.1,5.7-0.7,8.5c-0.8,2.7-2.2,5.3-4,7.5c-3.4,2.9-7.7,4.5-12.1,4.4
		L0.1,174c2.9,0,5.6-1.1,7.8-3C9.8,168.8,10.6,165.7,10.6,156.4z M63.8,152.2c0,4,0,7.6,0.3,10.7h-6.3l-0.4-6.3
		c-1.3,2.2-3.2,4.1-5.5,5.4c-2.3,1.3-4.8,1.9-7.4,1.9c-6.2,0-13.5-3.4-13.5-17V124H38v21.3c0,7.4,2.3,12.4,8.7,12.4
		c1.3,0,2.6-0.2,3.9-0.7s2.3-1.2,3.3-2.2c0.9-0.9,1.7-2.1,2.2-3.3c0.5-1.2,0.8-2.5,0.7-3.9v-23.9H64V152L63.8,152.2z M77.3,136.7
		c0-5,0-9-0.3-12.7h6.4l0.3,6.7c1.4-2.4,3.5-4.4,5.9-5.7c2.5-1.3,5.2-2,8-1.9c9.5,0,16.6,7.9,16.6,19.8c0,14-8.6,20.9-17.8,20.9
		c-2.4,0.1-4.7-0.4-6.8-1.5c-2.1-1.1-3.9-2.7-5.2-4.6v21.3h-7v-42.1V136.7z M84.4,147c0,1,0.1,1.9,0.3,2.9c0.6,2.4,2,4.5,3.9,6
		c1.9,1.5,4.3,2.3,6.7,2.3c7.5,0,11.9-6.1,11.9-15c0-7.8-4.2-14.4-11.7-14.4c-3,0.2-5.8,1.6-7.8,3.7c-2.1,2.1-3.3,5-3.4,8V147z
		 M127,123.9l8.6,23c0.9,2.6,1.9,5.6,2.5,7.9c0.7-2.3,1.5-5.3,2.5-8.1l7.8-22.8h7.5l-10.7,27.7c-5.3,13.3-8.6,20.2-13.5,24.3
		c-2.5,2.3-5.5,3.8-8.7,4.6l-1.8-6c2.3-0.7,4.4-1.9,6.2-3.5c2.6-2.1,4.7-4.8,6-7.9c0.3-0.5,0.5-1.1,0.6-1.7
		c-0.1-0.6-0.2-1.3-0.5-1.9l-14.5-35.8h7.8L127,123.9z M174.8,112.8V124H185v5.3h-10.2v21c0,4.8,1.4,7.6,5.3,7.6
		c1.4,0,2.8-0.1,4.2-0.5l0.3,5.3c-2,0.7-4.2,1-6.3,1c-1.4,0.1-2.9-0.1-4.2-0.6c-1.3-0.5-2.5-1.3-3.5-2.3c-2.2-2.9-3.2-6.5-2.8-10.1
		v-21.3h-6.1v-5.3h6.2v-9.5L174.8,112.8z M198.2,144.6c-0.1,1.8,0.1,3.6,0.7,5.3c0.6,1.7,1.6,3.2,2.9,4.5c1.3,1.3,2.8,2.3,4.5,2.9
		s3.5,0.9,5.3,0.7c3.7,0.1,7.3-0.6,10.7-2l1.2,5.3c-4.1,1.7-8.6,2.5-13,2.4c-2.6,0.2-5.2-0.2-7.7-1.1c-2.4-0.9-4.7-2.4-6.5-4.2
		c-1.8-1.9-3.2-4.1-4.1-6.6c-0.9-2.5-1.2-5.1-1-7.7c0-11.7,7-21,18.4-21c12.8,0,16,11.2,16,18.3c0.1,1.1,0.1,2.2,0,3.3H198
		L198.2,144.6z M219.1,139.3c0.2-1.4,0.1-2.9-0.3-4.3c-0.4-1.4-1.1-2.7-2-3.7c-0.9-1.1-2.1-2-3.4-2.6c-1.3-0.6-2.7-0.9-4.2-0.9
		c-2.9,0.2-5.7,1.5-7.7,3.6c-2,2.1-3.2,4.9-3.2,7.9H219.1z M236.4,136.1c0-4.6,0-8.5-0.3-12.1h6.4v7.6h0.3c0.7-2.4,2.1-4.4,4-6
		c1.9-1.5,4.2-2.4,6.7-2.6c0.7-0.1,1.4-0.1,2,0v6.7c-0.8-0.1-1.6-0.1-2.4,0c-2.4,0.1-4.7,1.1-6.5,2.7c-1.8,1.7-2.8,3.9-3.1,6.3
		c-0.2,1.1-0.3,2.2-0.3,3.3v20.7h-7v-26.6L236.4,136.1z"/>
	<path class="st0" d="M233.3,17c0.2,3.6-0.6,7.1-2.4,10.2c-1.8,3.1-4.5,5.6-7.7,7.1c-3.2,1.6-6.8,2.1-10.4,1.6
		c-3.5-0.5-6.9-2.1-9.5-4.5c-2.7-2.4-4.6-5.5-5.4-9c-0.9-3.5-0.7-7.1,0.5-10.5s3.4-6.3,6.3-8.4s6.3-3.3,9.9-3.5
		c2.3-0.1,4.7,0.2,6.9,1c2.2,0.8,4.3,2,6,3.6c1.7,1.6,3.2,3.5,4.2,5.6S233.1,14.6,233.3,17z"/>
	<path class="st1" d="M128,225.5c-47.9,0-90.1-17.2-111.8-42.6c8.5,22.9,23.7,42.6,43.7,56.5c20,13.9,43.8,21.4,68.1,21.4
		c24.4,0,48.1-7.5,68.1-21.4c20-13.9,35.2-33.6,43.7-56.5C218.1,208.3,176.1,225.5,128,225.5z"/>
	<path class="st1" d="M128,60.4c47.9,0,90.1,17.2,111.8,42.6c-8.5-22.9-23.7-42.6-43.7-56.5c-20-13.9-43.8-21.4-68.1-21.4
		c-24.4,0-48.1,7.5-68.1,21.4c-20,13.9-35.2,33.6-43.7,56.5C37.9,77.5,79.8,60.4,128,60.4z"/>
	<path class="st0" d="M62,275c0.3,4.5-0.8,9-3.1,12.9c-2.3,3.9-5.7,7-9.7,9s-8.6,2.7-13.1,2c-4.5-0.6-8.7-2.6-12-5.6
		c-3.4-3-5.7-7-6.8-11.3c-1.1-4.4-0.9-9,0.6-13.2c1.5-4.3,4.3-8,7.9-10.6c3.6-2.7,8-4.2,12.5-4.4c3-0.2,5.9,0.3,8.7,1.3
		c2.8,1,5.4,2.5,7.6,4.5c2.2,2,4,4.4,5.3,7C61.1,269.1,61.8,272,62,275z"/>
	<path class="st0" d="M21.6,54.6c-2.6,0.1-5.1-0.6-7.3-2c-2.2-1.4-3.9-3.4-5-5.7c-1.1-2.4-1.4-5-1-7.5s1.6-4.9,3.3-6.8
		c1.8-1.9,4-3.2,6.6-3.8c2.5-0.6,5.1-0.4,7.6,0.5c2.4,0.9,4.5,2.5,6,4.6c1.5,2.1,2.4,4.6,2.5,7.2c0.1,3.5-1.2,6.9-3.6,9.4
		C28.3,52.9,25.1,54.4,21.6,54.6z"/>
</g>
</svg>
