<?xml version="1.0" encoding="utf-8"?>
<!-- Generator: Adobe Illustrator 24.3.0, SVG Export Plug-In . SVG Version: 6.00 Build 0)  -->
<svg version="1.1" id="Layer_1" xmlns="http://www.w3.org/2000/svg" xmlns:xlink="http://www.w3.org/1999/xlink" x="0px" y="0px"
	 viewBox="0 0 2500 2500" style="enable-background:new 0 0 2500 2500;" xml:space="preserve">
<style type="text/css">
	.st0{fill:#599636;}
	.st1{fill:#6CAC48;}
	.st2{fill:#C2BFBF;}
</style>
<path class="st0" d="M1284.1,101.2l63.4,119.1c14.3,22,29.7,41.4,47.9,59.5c53.3,52.7,103,108.9,148.8,168.2
	c107.4,141,179.9,297.7,231.6,467.1c31,103.5,47.9,209.6,49.1,317c5.2,320.9-104.8,596.5-326.6,825.5
	c-36.1,36.3-75.1,69.6-116.5,99.6c-22,0-32.4-16.9-41.4-32.4c-16.5-28.8-27.5-60.4-32.4-93.2c-7.8-38.8-12.9-77.6-10.4-117.7v-18.1
	C1295.8,1891.9,1276.4,110.3,1284.1,101.2L1284.1,101.2z"/>
<path class="st1" d="M1284.1,97.3c-2.6-5.2-5.2-1.3-7.8,1.3c1.3,26-7.8,49.1-22,71.3c-15.6,22-36.2,38.8-56.9,56.9
	c-115.1,99.6-205.6,220-278.1,354.5C822.8,762.4,773,956.5,758.9,1160.9c-6.5,73.7,23.3,333.8,46.5,408.9
	c63.4,199.2,177.3,366.2,324.8,511.1c36.2,34.9,75,67.3,115.1,98.4c11.7,0,12.9-10.4,15.6-18.1c5.1-16.5,9-33.4,11.7-50.5l26-194
	L1284.1,97.3z"/>
<path class="st2" d="M1347.5,2236c2.6-29.7,16.9-54.3,32.4-78.9c-15.6-6.5-27.2-19.3-36.2-33.6c-7.8-13.6-14.3-27.9-19.3-42.7
	c-18.1-54.3-22-111.3-27.2-166.9v-33.6c-6.5,5.2-7.8,49.1-7.8,55.7c-3.8,58.7-11.6,117-23.3,174.7c-3.9,23.3-6.5,46.5-20.8,67.3
	c0,2.6,0,5.2,1.3,9.1c23.3,68.6,29.7,138.4,33.6,209.6v26c0,31-1.3,24.5,24.5,34.9c10.4,3.9,22,5.2,32.4,12.9
	c7.8,0,9.1-6.5,9.1-11.7l-3.9-42.7v-119.1C1341,2276.1,1344.8,2255.5,1347.5,2236L1347.5,2236z"/>
</svg>
