<?xml version="1.0" encoding="utf-8"?>
<!-- Generator: Adobe Illustrator 24.3.0, SVG Export Plug-In . SVG Version: 6.00 Build 0)  -->
<svg version="1.1" id="Layer_1" xmlns="http://www.w3.org/2000/svg" xmlns:xlink="http://www.w3.org/1999/xlink" x="0px" y="0px"
	 viewBox="0 0 2500 1144" style="enable-background:new 0 0 2500 1144;" xml:space="preserve">
<style type="text/css">
	.st0{fill:#CCCCCC;}
</style>
<path class="st0" d="M2343.2,338.2c0,100.5-81.4,181.9-181.9,182c-100.5,0-180.8-81.5-180.8-182c0-100.5,81.5-182,182-182
	c100.5,0,182,81.5,182,182H2343.2z M2160.1,0c-186.1-0.4-337.3,149.9-338.2,335.9l-210.9,302.5c-8.9-1.1-17.9-1.1-25.7-1.1
	c-45.6,0.2-90.2,12.5-129.4,35.7L500.6,289c-25.3-116-128-198.6-246.7-198.7C114.1,90.7,0.9,203.9,0.6,343.7
	c0.3,139.8,113.5,253,253.3,253.4c45.6-0.2,90.2-12.5,129.4-35.7l955.3,383.9c25.3,116,128,198.6,246.7,198.7
	c130.6,0,238.9-100.4,251.1-227.7l324.8-237.7c186.6,0.1,338-151.1,338.2-337.7c0-0.2,0-0.3,0-0.5c0.1-186.6-151.1-338-337.7-338.2
	c-0.2,0-0.3,0-0.5,0L2160.1,0L2160.1,0z M2160.1,111.6c125.1,0.1,226.5,101.5,226.6,226.6c-0.1,125.1-101.5,226.5-226.6,226.6
	c-125.1-0.1-226.4-101.5-226.5-226.6C1933.7,213.1,2035,111.7,2160.1,111.6L2160.1,111.6z M252.8,156.2
	c71.4,0,132.8,40.2,164.1,98.2l-92.6-36.8c-74.8-26.8-157.4,10-186.4,83.7c-30.2,73.7,4.4,157.4,76.9,189.7l78.1,31.2
	c-13.2,3.1-26.6,4.7-40.2,4.5C150,527,66.6,443.8,66.4,341.1c0-0.2,0-0.5,0-0.7C66.2,237.6,149.3,154.2,252,154c0.2,0,0.5,0,0.7,0
	V156.2L252.8,156.2z M1584.3,703.1c102.7-0.3,186.1,82.8,186.4,185.5c0,0.3,0,0.6,0,0.9c0.2,102.7-82.9,186.2-185.6,186.4
	c-0.3,0-0.5,0-0.8,0c-69,0.3-132.4-38-164.1-99.3c30.2,12.3,61.4,24.6,91.6,36.8c75.8,29.9,161.6-6.3,193.1-81.5
	c30.2-75.7-6.6-161.6-82.4-191.8c-0.1,0-0.1-0.1-0.2-0.1l-77-31.2c13.4-3.4,26.8-4.5,40.2-4.5L1584.3,703.1L1584.3,703.1z"/>
</svg>
