<?xml version="1.0" encoding="utf-8"?>
<!-- Generator: Adobe Illustrator 24.3.0, SVG Export Plug-In . SVG Version: 6.00 Build 0)  -->
<svg version="1.1" id="Layer_1" xmlns="http://www.w3.org/2000/svg" xmlns:xlink="http://www.w3.org/1999/xlink" x="0px" y="0px"
	 viewBox="0 0 2500 2500" style="enable-background:new 0 0 2500 2500;" xml:space="preserve">
<style type="text/css">
	.st0{fill:none;}
	.st1{fill-rule:evenodd;clip-rule:evenodd;fill:#FFFFFF;}
</style>
<g>
	<path class="st0" d="M-171.4-171.9h2844.9V2673H-171.4V-171.9z"/>
	<path class="st1" d="M279.8,1036.9c-0.7-11.6-0.7-22.9-0.7-34.4c0-7.5,0.2-15.1,0.2-22.6c8.2-212.5,81.6-403.3,209-568.7
		C702.3,144.8,1012,8.9,1357,42.4c220.9,24.1,415.4,115.7,578,275c179.7,180.3,278.3,411.9,287.3,662.6c0.7,11.3,0.7,22.9,0.7,34.1
		c0,7.4,0,15.1-0.2,22.9c-8.2,212.2-81.6,402.9-209,568.5c-213.9,266.4-523.3,402.3-868.4,369c-221.1-24.1-415.6-115.7-578.2-275.3
		C387.3,1519.1,289,1287.4,279.8,1036.9L279.8,1036.9z M2203.7,1036.9c12.1-383.7-216.8-751.2-577.2-905.1
		c-112.9-48.1-234.6-75.3-366.6-77.5c-34.4,0.9-73.9,2.2-108.2,6c-314.2,30.5-613,237.5-752.6,524.9
		C337.7,705.8,304.3,837.2,298,979.9c-11.3,383.8,217.2,751.2,577.7,904.9c112.9,48.1,234.6,75.6,366.6,77.7
		c34.5-1.3,73.9-2.2,108.2-6c314.4-30.5,613-237.5,752.6-525.3c61.3-120.5,95-251.9,101.1-394.3H2203.7L2203.7,1036.9L2203.7,1036.9
		z M2010.3,490.3l-50.3,34.4l-9.7-4.3c-14.7-17.3-27.7-41.9-46-56.8h-2.6l-25.7,22.4l5.3,6.5c-4.9-1.5-9.9-2.7-14.9-3.6
		c-4.3-0.6-8.5-1.6-12.5-3.1l-1.9-2.4l52.5-46.4c20.7,20.7,35.6,44.3,53.6,66.7c10.4-4.3,20.3-12.1,29.4-19.7
		c-23.3-37.1-54.2-74.1-85.7-105.4l-3.9,0.7c-26.7,23.8-49.6,50.1-75.8,72.4c-33.9-31.5-67.1-63.7-105.4-88.8l-3.4-3.9
		c13.8-19.7,26.7-39.5,40.9-58.5c20.3,15.1,42.1,31.7,64,48.1c7.7-7.2,15.1-17.1,21.2-25.3v-3.1c-31.1-27.9-64.3-52-98.7-73.9h-4.6
		c-18.5,29.1-38.7,57.5-54.4,87.3l-2.8,2.2c-39.1-23.8-79.7-46.9-122.2-64.3c8.6-21.8,15.9-44.7,26.7-66.1
		c25.7,10.4,49.7,24.6,75.3,34.9l15.9-29.8c-6.5-7.7-16.4-11-25-15.9c-29.1-14.2-58.9-27.4-89.4-37.8l-2.8,1.7l-34.8,98.2l-2.2,1.3
		c-22.9-7.2-46-14.7-68.8-20.7c-21.2-6.7-44.3-8.9-66.7-13.2c2.2-23.3,8.2-46.9,11-71l2.2-0.9c25.5,6.5,52.5,10.4,77.5,16.8
		c3.1-11.6,6.9-22.9,9.1-34.9c-39.7-11.8-80.5-19.7-121.8-23.6c-4.3,32-8,64.5-12.5,96.7c-4.6-6-8.2-13.2-11.4-19.9
		c-0.2-1.7-0.7-3.4-1.5-5c3.9-29.6,5.1-60.7,10.1-89c5.6-2.2,8.6,0.5,14.2,0.5c49.4,5.8,98.1,15.7,145.8,29.6
		c-6.5,21.6-13.2,43.6-19.2,65.4c-14.7-1.3-29.4-7.7-44.7-9.9c-10.9-2.8-22-4.8-33.2-6c-4.3,10.8-4.3,23.6-7.2,35.4
		c9.4,3.4,19.7,3.9,29.1,7.2c26.2,6.5,52.2,13,77.9,21.2c12.5-33.2,21.4-68,33.9-101.5c53.4,15.9,103.2,39.5,152.8,65.7l1.7,1.7
		c-11,20-22.4,41-33.5,61.1c-23.3-11.6-46.2-25.3-70.8-34.4c-3.9,0.5-3.9,4.8-5.5,7.5l-11,25.3c31.7,16.8,64.5,30.5,95,50.3
		c20.7-29.6,37.8-61.8,57.2-91.1c47.1,27.7,91.9,62.1,135,98.7l-0.5,3.4l-43.4,48.6h-4.8c-17.6-15.9-36.1-31.1-55.1-45.3l-3.4-0.7
		l-20.7,27.9c28,23.6,57.8,48.6,85.7,74.9l76-75.3c41.9,40.9,79.7,86.6,112.9,133.8L2010.3,490.3L2010.3,490.3z M2031.7,557.6
		l-10.6,5.8c-5-3.9-10.4-7.4-15.4-11.3c11.6-6.5,22.9-13.2,34.1-20.3c22.6,35.4,42.2,72.6,58.5,111.4c-3-3.9-5.8-7.4-9.2-10.4
		c-8.2-14-20.9-26.2-32.2-38.5c-6.7-12.5-13.8-25.3-21.8-36.8L2031.7,557.6L2031.7,557.6z M476,549.4l53.6,31.5
		c-3.1,4.3-8,8.2-11.6,12.5c-22.2-12.3-44-24-65.7-37.1c6.5-14.2,14.7-27.9,23.6-41.4c23.8-38.2,51.8-73.9,81.8-108.2h2.6
		c15.4,14.9,33.9,29.6,49,43.8c-15.1,23.3-35.8,46.4-51.8,69.8l0.5,2.2l4.1,2.8c-5.1,4-10,8.4-14.5,13.2
		c-5.1-3.4-10.1-6.9-15.1-10.6v-2.6c17.1-23.8,34.5-47.2,52.2-70.4c-6-8.6-15.6-13.7-24.6-21.2h-4.3
		C525.5,470.2,496.7,508.3,476,549.4L476,549.4z M460.3,910c-1.5,10.4-2.7,20.8-3.6,31.3c-6.5,2.2-15.1,0.9-22.4,0.5l-47.3-4.3
		c-0.5-24.6,5.2-48.8,8.6-73.4l1.9-0.7c2.8,9.9,5.2,20.3,10.1,29.4c-1.3,9.1-2.2,18.3-2.6,27.2c11.3,2.6,22.9,3.9,34.9,4.3l1.9-12.1
		h3.9C451.4,914.1,456,912.2,460.3,910L460.3,910z M456.6,634.9c-3.9-1.5-8-2.8-10.8-5.2c-3.9-0.9-8.2-3.9-12.1-2.6
		c-7.5,14.7-14.5,29.6-20.9,44.7c-10.6,10.4-20.7,20.7-29.6,32.2c12.5-35.2,26.7-69.5,44-102.8l2.6-1c14.2,8,29.4,14.9,44.3,22.4
		C468.2,626.5,462.4,630.6,456.6,634.9z M1302.9,214.1c-29.1-1.4-58.3-1.5-87.3-0.5c-2.6-24.6-3.4-49-3.4-71.5
		c27.4-3.4,51.5,0.5,79.2-0.5c2.2-11.5,3.9-24,1.1-35.6l-1.1-1.7c-37.6-2.2-79.7-2.2-117.9,2.8l-2.6,2.6
		c2.6,33.9,5.6,69.3,9.9,102.8l-4.3,4.3c-46,2.6-89,14.2-131.1,22.9c-8.2-22.4-13-45.3-19.7-67.6l3.4-2.8
		c23.3-4.3,46.9-9.1,69.8-15.6c-1.5-12.1-4.3-23.6-7.4-35.2c-39.9,5.6-77,15.9-113.6,28.4v6.7c9.7,32.8,22.4,64.3,29.8,97.6
		c-32,11.3-63,23.3-93.3,37.6c-3.9-2.4-8.6-2.8-12.7-0.9c-7.4,6.5-15.1,12.3-21.8,18.5c-12.7-20.3-23.6-42.1-33.9-63.3
		c23.8-12.7,48.6-23.1,72.4-34.4c-1.5-12.1-6.9-24.6-14.7-34.4c-38.7,16.4-77,33.7-113.1,57.8c17.1,31.3,36.5,61.1,55.3,91.7
		c-36.5,25.7-74.9,48.6-108.2,78.6l-14.2,12.5c-15.6-15.6-30.6-33.7-46.9-51.8c12.1-14.7,27.9-25.7,42.6-37.8
		c8.2-6.9,19.2-13,26.7-21.2c-6-9.9-13-18.5-20.7-27.9c-39.7,25.7-74.9,55.9-109.7,92.9c22.9,23.3,52.5,52.9,75.3,75.8l-10.4,11.3
		c-3.9,1.5-7.5,2.8-11,4.1c-9.1,4.1-18.3,8.2-27.2,12.5c4.8-5.8,9.9-11.3,14.9-16.8l9.7-11c-24.6-26.7-50.1-46.9-75.3-75.8
		c41.6-46,90.2-82,137.1-117.4h3.1l36.5,53.5v5c-22.4,16.4-45.3,33.2-65.4,51.7v2.8c7.2,9.7,14.2,16.4,22.4,25.5
		c31.7-24.6,63.3-50.1,96.7-71.9c-19.2-30-37.3-60.7-55.9-90.7c49.8-29.4,98.9-56.8,150.9-77.5c8.6,20.7,17.9,42.6,25,64.5l-0.5,2.2
		c-24,10.4-49.3,20.3-72.1,33.7c3.4,11.6,11,20.9,16.4,31.7c33.6-15.6,67.6-30.2,102-43.6c-10.4-34.4-23.3-67.4-33.2-102.3
		c50.3-15.1,101.5-30,154-37.6c4.8,21.6,5.6,45.7,12.5,67.1c-14.2,5.2-30,5.2-44.3,9.9c-10.4,1.5-20.7,3.6-29.8,8.6l7.4,33.9
		c15.9,0,30-7.7,46-8.2c20.3-5,41.4-7.2,61.6-11c-0.9-35.4-7.4-71-10.4-105.8l1.3-2.2c52.5-3.9,105.8-6.5,158.3-2.2
		c2.2,21.8-3.9,45.3-2.8,66.7c1.3,3.1-2.6,2.6-4.8,3.1c-22.4-0.9-50.3-3.1-71-0.5c-1.7,9.9-1.3,24,0,35.4
		c27.2,1.5,53.4,2.4,79.7,3.6l-0.7,1.9C1308.2,204.2,1305.6,209.2,1302.9,214.1L1302.9,214.1z M2115,909.6l1.9,11.6
		c12.1-0.7,24.6-1.7,35.4-5l-0.7-7.5c2.8-1.5,6.5-1.9,9.1-3.9c1.5-1.9,2.6-5.3,4.8-5.8c2.6,13,3.9,25,4.8,36.8
		c-22.9,1.7-46.9,5.6-68.8,3.9c-1.3-12.7-2.4-25.7-4.1-38.5c1.3-0.2,2.4-0.7,3.4-0.9C2104.2,904.6,2109.2,908.2,2115,909.6
		L2115,909.6z M2049,998.7c-0.3-38.9-3.9-77.8-10.6-116.2c6.3,6,12.7,12.1,19.5,15.4c3.9,26.7,7.3,53.4,7.5,82l1.9,28.3l2.2,1.5
		l99.3,0.7c1.7,1.5,4.8,0.5,5.3,3.1c-0.5,62.8-9.1,123-20,180.3l-1.7,1.7c-21.8-5.6-44.7-8.9-66.7-13.7c-4.3-6.5,2.6-12.5,1.7-19.7
		c4.9-21.5,8.2-43.5,9.9-65.4c-11.5-2.5-23.3-4-35.2-4.3c-6.9,42.1-13.5,84-24.6,123.9c8.2,6.5,20.7,6,31.3,10.4
		c23.8,6,46.9,12.5,70.2,19.7l1.3,1.7c-18.1,57.2-37.8,114-65.4,167.5l-2.8,1.3c-19-11-39.7-19.8-58.9-30
		c8.6-25.7,22.4-49,31.1-75.3c-11.3-5-22.4-11-34.1-12.5c-14.2,37.6-33.5,73.6-52,109.7c30.6,18.1,61.6,33.7,91.7,51.8
		c-6.5,14.2-14.7,27.9-23.3,41.6c-24.1,38-52,73.6-82,108h-2.6c-15.4-14.7-33.9-29.6-49-43.8c15.1-23.3,35.8-46.2,51.8-69.8
		l-0.5-2.2l-27.2-19.2c-23.1,28.4-46.4,58.5-71,85.9l-9.8,10.8c24.6,26.7,50.1,46.9,75.3,75.8c-41.6,46-90.2,82-137.1,117.4h-3.1
		l-36.6-53.4v-5.1c22.4-16.4,45.2-33.2,65.4-51.7v-2.6c-7.2-9.9-14.2-16.4-22.4-25.7c-31.7,24.6-63.3,50.3-96.7,71.9
		c19.2,30,37.2,60.7,55.8,90.7c-49.8,29.6-98.9,56.8-150.7,77.5c-8.9-20.7-18.1-42.6-25.3-64.3l0.5-2.4c24.1-10.4,49.3-20,72.1-33.7
		c-3.4-11.5-10.8-20.7-16.4-31.7c-33.6,15.6-67.6,30.2-102,43.8c10.4,34.4,23.3,67.1,33.2,102c-50.3,15.4-101.5,30-154,37.8
		c-4.8-21.8-5.3-46-12.5-67.4c14.2-5.2,30-5.2,44.3-9.7c10.4-1.7,20.7-3.9,30-8.9l-7.7-33.7c-15.9,0-30,7.5-46,8.2
		c-20.3,4.8-41.4,6.9-61.6,10.8c0.9,35.6,7.7,71,10.4,105.8l-1.3,2.2c-52.2,3.9-105.8,6.7-158.3,2.2c-2.2-21.6,3.9-45.2,2.8-66.5
		c-1.3-3.3,2.6-2.8,4.8-3.3c22.4,1.1,50.3,3.3,71,0.5c1.7-9.9,1.3-24.1,0-35.4c-35.4-1.7-69.3-2.8-103.2-5
		c-6,34.4-6.5,72.1-12.5,106.1c-5.6,2.2-8.6-0.7-14.2-0.7c-49.3-5.8-98.1-15.7-145.8-29.4c6.7-21.8,13.2-43.8,19.2-65.7
		c14.7,1.3,29.4,7.7,44.7,9.9c10.8,3,22,5,33.2,6c4.3-10.8,4.3-23.3,7.2-35.4c-9.3-3.4-19.7-3.9-29.1-7.3
		c-25.9-6.5-52.2-13-77.9-21.2c-12.5,33.2-21.2,68-33.9,101.5c-53.4-15.9-103-39.5-152.8-65.4l-1.7-1.7l33.5-61.1
		c23.3,11.4,46.4,25,71,34.4c3.6-0.7,3.6-5,5.3-7.7l11-25.3c-31.7-16.8-64.5-30.6-95-50.1c-20.7,29.4-37.8,61.6-57.2,91.3
		c-46.9-28-91.9-62.4-135-98.9l0.7-3.4l43-48.6h4.8c17.8,15.9,36.2,31.1,55.1,45.5l3.4,0.5l20.7-28c-27.9-23.3-57.8-48.6-85.7-74.9
		l-75.8,75.6c-42.1-41.1-79.9-86.8-113.1-133.7l1.7-3.9l53.9-36.6c17.5,17.3,31.3,46.4,52,63.3h2.6l25.7-22.4
		c-25.7-31.7-50.3-64-70-98.4l-2.2-1.5c-30.5,18.5-61.6,35.4-91.7,53.9c-32.5-50.3-58.4-104.6-77-161.5c4.3-3.9,11-3.9,14.9-7.2
		c15.6-6,32.8-11.3,49-16.4c9.9,25.7,19.5,52,33.2,76.6c12.5,0,22.4-9.4,33.9-14.2c-17.1-38.2-32.3-77.3-45.5-117
		c-33.7,9.9-67.6,19.7-101.5,30.6c-20.7-60.7-31.5-128.7-37.6-194.9c22.9-1.5,46.9-5.2,68.8-3.9c3.1,30,5.3,61.8,13,90.7l1.7,2.2
		c12.5-0.5,24-3.9,34.9-6.9c-5.3-42.3-13-81.8-13.4-125.9l-1.9-28.4l-2.2-1.7l-99.3-0.5c-1.5-1.7-4.8-0.7-5.3-3.4
		c0.2-40.6,4.1-80.1,9.7-118.3c6.3-0.5,12.5-2.6,18.3-4.1c-2.8,17.3-4.6,35.2-6.7,52c-0.5,18.5-4.3,36.5-0.9,55.1
		c34.4,2.4,69.3,1.7,104.7,3.4l0.2,27c0.5,54.6,7.4,108.2,19,159l-2.2,2.2c-22.9,3.1-46,8.2-68.3,13.4c-6.5-31.5-10.8-65.4-16.4-97
		c-12.1,0.5-24.6,1.5-35.4,4.8c4.8,52.9,15.1,101.1,28.9,150.1c30-4.3,58.5-15.4,87.8-22.4c6-0.5,12.7-7.2,18.5-2.2
		c11,50.8,33,97.2,55.9,142.9l-1.3,2.8l-60.4,30.6l-2.8-0.7c-13-26.1-25-52.9-36.5-80.1l-32.8,12.1c5.6,26.2,19,50.3,30.5,74.9
		c9.3,16.8,18.1,34.8,29.6,50.8h3.1l90.2-50.8l1.5,1c25.3,43,55.9,85.1,88.1,123.9l-52.5,46.4c-20.7-20.7-35.6-44.3-53.4-66.7
		c-10.6,4.3-20.3,12.1-29.6,19.7c23.6,37.1,54.2,74.4,85.7,105.4l3.9-0.5c26.7-24.1,49.8-50.3,75.8-72.7
		c33.9,31.5,67.4,63.7,105.4,89l3.4,3.9c-13.7,19.5-26.7,39.1-40.9,58.3c-21.3-15.9-42.7-32-64-47.9c-7.4,6.9-15.1,16.8-21.2,25v3.4
		c31.1,27.7,64.5,51.7,98.9,73.6h4.3c18.5-28.9,38.7-57.2,54.6-87.4l2.6-2.2c8.4,5,16.8,10.1,25.5,15.1c2.4,3.1,5,6.3,8.2,8.9
		c2.6,1.3,3.4,4.1,5.2,6.3c0.5,1,2.4,1,2.4,2.4c14.7,11,29.4,21.8,46.9,27c9.3,3.9,19.7,4.6,29.1,6.7l3.9,0.2
		c-8.2,21.2-15.1,43.4-25.7,63.7c-25.7-10.4-49.6-24.6-75.3-34.9l-15.9,30c6.5,7.4,16.4,10.8,25,15.6c29.1,14.2,58.9,27.4,89.8,37.8
		l2.6-1.7l34.9-98.1l2.2-1.3c22.9,7.2,46,14.9,68.8,20.9c21.4,6.5,44.3,8.6,66.7,13c-2.2,23.6-8.2,46.9-11,71l-2.2,1
		c-25.5-6.5-52.2-10.4-77.5-16.8c-3.1,11.6-6.9,22.9-9.1,34.8c39.7,11.8,80.5,19.7,121.8,23.7c4.8-35.6,8.6-71.5,14.2-107.1
		c43,4.3,90,5.6,133,3.9c2.8,24.6,3.4,49,3.4,71.5c-27.4,3.4-51.2-0.5-79.2,0.7c-2.2,11.3-3.9,23.8-1.3,35.4l1.3,1.7
		c37.6,2.2,79.7,2.2,117.9-2.6l2.6-2.8c-2.6-33.9-5.2-69.3-9.9-102.4l4.6-4.6c45.7-2.6,88.8-14.2,130.9-22.9
		c8.2,22.4,13.2,45.2,19.8,67.8l-3.4,2.6c-23.3,4.3-46.9,9.1-69.8,15.8c1.7,12.1,4.3,23.3,7.7,34.9c39.7-5.6,76.8-15.9,113.3-28.4
		v-6.5c-9.7-32.8-22.4-64.4-29.8-97.6c20.9-7.5,41.6-15.1,61.8-23.8c4.8-0.7,9.9-1.7,14.9-1.9c8-0.7,15.4-5.6,23.1-7.7
		c11.2-4.9,21.5-11.2,31.1-18.8c11,19.8,21.4,39.9,31.3,60.4c-24,12.5-48.6,22.9-72.6,34.1c1.7,12.1,6.9,24.8,14.7,34.4
		c38.7-16.4,77-33.7,113.1-57.7c-17.1-31.1-36.6-61.1-55.1-91.7c36.6-25.7,74.6-48.6,108-78.6l14.2-12.5
		c15.9,15.8,30.6,33.9,46.9,51.7c-12.1,14.9-27.9,25.7-42.6,37.8c-8.2,6.9-19,13-26.7,21.2c6,9.9,13,18.8,20.7,27.9
		c39.9-25.5,74.9-55.5,109.7-92.9c-25-25.4-50.1-50.6-75.3-75.8c33.9-36.5,69.3-77,98.1-119.6h4.3c18.1,12.5,37.3,23.6,55.3,36.6
		v2.8c-17.3,23.6-34.8,47-52.5,70.2c6,8.9,15.9,13.8,24.6,21.4h4.3c30.5-36.6,59.4-74.9,80.3-115.7l-90.2-52.9v-5
		c26.7-41.9,46-87.4,64-132.6l2.2-1.7c21.2,8.6,43.6,15.4,65.4,23.6c-8.2,26.2-20.7,50.8-31.7,76.2c4.6,7.2,14.2,7.2,20.3,12.1
		c3.9,1.3,8.2,3.9,12.1,2.8c20.9-41.5,38.2-84.7,50.3-130.6c-33.9-10.4-68.4-20.7-102-31.1c13.4-50.3,24-98.9,28.9-152.8
		c6.5-2.2,15.5-1.3,22.4-0.7l47.3,4.6c0.7,28.9-7.5,57.2-10.4,86.1c10.4,3.9,21.8,4.8,32.8,7.2c9.4-27.9,11.6-59.6,15.4-88.5
		c0.5-18.5,4.3-36.5,1.3-55.1c-34.4-2.2-69.5-1.7-104.9-3.4L2049,998.7L2049,998.7z M1043.5,1725.7c129.2,35.8,278.1,37.1,407,1.5
		c1.5,0.7,2.8,1.5,4.6,1.9c7.4,1.7,14,6,21.8,7.5c-128.9,40.6-269.2,46.2-410.9,13c-15.6-3.5-31.1-7.7-46.4-12.5
		C1027.9,1733.7,1035.9,1729.8,1043.5,1725.7L1043.5,1725.7z M505.8,979.9c-10.4,250.7,111.6,490.6,310.1,634.7
		c0.5,3.4,1.3,6.5,2.2,9.4c0,4.6,0.5,9.1,1.5,13.4c-124.6-87.1-226.9-212-278.1-350.4c-30-77.5-49.6-161.9-52.9-250.2h-1.7
		c-0.7-26.1,0-52.2,1.9-78.2c6,4.1,11.6,8.2,17.5,12.1L505.8,979.9L505.8,979.9z M1996.1,1036.9c2-47.7-0.6-95.4-8-142.5
		c5.8-0.5,11.3-3.6,16.2-7.4c5.1,30.7,8.2,61.8,9.4,92.9h1.7c4.3,185.5-56.1,354.7-164.3,497.9c-53.4,66.1-114.7,122.2-181.8,166.7
		c0.9-3.1,2.8-6,3.9-9.3c0.5-6,2.8-11.4,4.3-17.1c11.8-8.4,23.6-17,35.2-25.7c172.7-139.7,272.3-334.2,283.9-555.3L1996.1,1036.9
		L1996.1,1036.9z M1103,277.3c-51.5,9.9-100.8,25.5-145.5,46.4c-3.9,1.7-7.7,3.6-11.5,5.3c-2.8-1.7-5.2-3.4-8-4.8
		c-1.7-1.3-3.1-3.1-4.3-4.1c-1.4-0.7-2.7-1.6-3.9-2.6c67-31.9,138.4-53.5,211.8-64.3c-9.9,5.2-19.5,10.6-29.1,16.6
		C1109.4,272.6,1106.2,275,1103,277.3L1103,277.3z M1547.4,974.8c-4.1,0.7-6.7,3.4-8.6,6c-0.7,1.3-1.7,2.6-2.4,4.1l-1.5,3.1
		c-9.4,9.7-18.8,17.5-31.1,19c-14.2-2.2-26.7-9.3-38.5-18.3c-2.5-0.9-5-2-7.4-3.4c-2.6-1.5-5.3-3.2-8-4.6
		c-20.9-14.7-50.5-11.3-74.5-7.7c-12.3,0-23.1,5.3-32.4,11.8c-3.2,0.7-6.3,2.3-8.6,4.6c-2.5,1.9-4.8,4.1-7.1,6.3
		c-1.1,0.8-2.2,1.8-3.1,2.8c-1,1.3-2.4,2.8-2.8,4.8l-0.2,1.3c0,0.7-0.2,1.5-0.2,2.4c0.2,2.6,2.4,4.6,6.3,3.6l1.7-0.2l3.2-1.3
		l3.9,1.9l0.2-6c0-0.2,0.7-0.7,1.9-1.5c1.1-0.7,2.6-1.5,4.1-2.2c7.4-5.3,14.2-8.4,22.1-10.8c7.7-2.6,16.6-4.3,28-6.7
		c19.9,0.7,32.4,2.6,46.2,8c9.1,4.3,16.2,9.1,21.8,13.7l3.4,3.1l-3-1.3c-2-0.9-4.2-1.5-6.5-1.9c-23.1-7.4-47.7-11.6-73.4-8.9
		c-21.4,3.9-42.6,14.5-56.6,30.3c-0.2,0.5-0.5,0.7-1.3,2.4c-1,1.3-1.8,2.7-2.4,4.3c-0.6,2-0.3,4.3,0.7,6.3c-0.9,0.3-1.7,0.9-2.4,1.7
		c-1.1,1.9-1.6,4.2-1.3,6.5c0.2,1.7,1,3.4,1.3,5c1.7,4.3,4.6,5.8,7.3,6.7c0.9,0.5,2.2,0.7,3.3,1.3c1.4,0.5,2.7,1.1,3.9,1.9
		c14.2,2.4,26.7,7.2,40.6,10.4c26.2,8,56.6,5,79.9-7.2c13.2-5.6,26.5-13.4,38.5-22.2l2.4-2.4l2.4-1.7c0.7-0.9,1-1.3,2.4-2.6l2.2-3.6
		c-0.2-2.4-0.7-4.1-2.2-5.6l-1.5-1.3l-2.4-1.7l-1.5-0.9l-3.2-1.9l-1.5-0.9c8,0.2,17.5,0,21.4-0.5c5.3-2.6,10.4-3.9,14.7-5.8
		c4.8-1.9,9.2-4.8,12.5-10.6c0.7-0.5,1.5-0.9,1.9-1.5l1.5-1.9c1-1.3,1.7-2.2,3.6-3.6c1-1.9,2.4-3.9,3.6-5.8c1.3-2.2,2.6-4.3,3.4-6.7
		c1.7-3.6-0.2-7.4-3.4-10.1L1547.4,974.8L1547.4,974.8z M1341.4,1048.6c-1.9-0.5-4.1-0.7-6-1.5c-2.8-0.7-5.3-2.5-6.9-5l1.3-1.3
		c1.9-4.1,5.6-6.7,10.6-9.9l2.4-2.2c-0.8,3.4-1.1,7.1-0.7,10.6c0.5,3.1,1.1,6.5,1.9,9.7L1341.4,1048.6z M1458.3,1048.4
		c-0.9,0.5-1.9,0.7-2.6,1.3l-3.2,1.7c-1.1,0.6-2.2,1-3.4,1.5l-1.9,0.5c-19.7,13-47.7,11-72.1,5.8c-8.2-1.3-14.2-8-18.1-15.6
		c-0.5-1.3-0.5-2.4-0.2-4.3c0-2.2,0.5-4.1,0.7-6.3c0.2-3.9-0.2-8.4-5.3-10.8c27-16.2,65-15.4,92.6-3.1c1.5,0.9,2.8,1.9,4.6,2.6
		c1.4,0.7,3.3,1.5,4.8,2.2c3.2,1.7,5.1,3.1,6.3,4.8c0,4.1,1,8.6,1,12.7C1461.5,1045.3,1460.8,1047.5,1458.3,1048.4L1458.3,1048.4z
		 M1475.4,1038.1c-1.7,0.9-2.8,0.2-3.4-1.7c-0.7-4.1,3.4-0.9,5.3-1.3C1477.4,1036.1,1475.9,1037.4,1475.4,1038.1L1475.4,1038.1z
		 M1552.6,949.1c-5.8,0.7-11.3,1.9-16.8,2.8c-5.6,0.9-11,1.7-16.4,0.9c-7.9-0.3-15.7-1.5-23.3-3.4c-2.5-1.4-5-2.5-7.7-3.6
		c-2.6-0.9-5.3-1.7-8-2.6c-5.2-1.5-10.6-3.1-15.4-6.3c-13.4-5.3-27.9-8.4-41.6-14c-10.1-1.5-19.5-0.7-30.4,0.9
		c-6.5,2.6-13.8,4.8-20.9,6.9c-6.9,2.4-14.2,5.2-20.7,10.4c-1.1,2.8-3.9,4.6-6.5,6.3l-2.2,1.5c-0.7,0.5-1.5,0.9-1.9,1.5
		c-1.3,1.1-2.4,2.5-3.1,4.1c-5.1,4.3-9.9,9.3-15.1,13.7c-5.1,4.6-10.8,8.4-17.5,10.4c-1.1,0.7-3.6,2.2-4.3,4.8
		c1.7,2.8,5,3.4,7.7,3.1h4.6c1.5,0,2.6,0,4.6,0.2c5.8-1.9,10.6-5.3,14.9-9.3c4.3-4.1,8.4-8.4,12.7-12.5c8.4-9.7,18.5-17.5,31.3-21.6
		c4.1-0.2,7.5-1.7,10.6-3.4l4.8-2.4c1.5-0.7,2.8-1.3,4.6-1.9c2.8,0.7,5.8,0.7,8.6,0.7c3.1-0.2,6.3-0.5,9.3-0.5
		c6-0.2,11.8,0.2,16.8,3.6c11.6,2.2,20.9,6.7,33.9,10.1c3.2,2.2,6.7,3.6,10.1,5c3.4,1.5,6.7,2.6,9.1,4.1l1.7,0.2h1.7
		c0.5,0,0.9,0,2.6,0.7c10.1,1.5,20,3.4,29.6,3.9c9.4,0.5,18.8-0.7,28.4-5.3c1.7,0.5,2.6,0,3.4-0.9l1.5-1.3l1.5-1.9
		c0-0.5,0.2-1.3,0.2-1.7C1555.1,951.2,1554.8,950,1552.6,949.1L1552.6,949.1z M1154.9,1272.5c4.6-0.9,9.1-2.2,13.4-3.4
		c4.6-1.1,8.9-1.9,13.2-2.2c4.8-1.3,9.9-0.7,14.7,0.7c5,1.3,9.9,3.4,15.1,5.1c2.4-0.5,3.4-3.9,2.8-6.3c-1.6-2.2-3.6-3.9-6-5.1
		c-14.2-14-38.7-10.4-55.3-4.3c-2.8,0.2-6,1.5-9.1,1.9c-2.8,0.5-5.3,0.2-7.3-2.4c-3.9-3.1-4.6-8.6-3.9-14.2
		c-2.6-2.8-6.9-1.9-9.9,0.7c-2.8,9.1,1.5,17.3,6.5,23.1C1136.9,1273.8,1146,1274.2,1154.9,1272.5L1154.9,1272.5z M1320.2,1388
		c-14.7,4.8-30.5,9.7-47.1,10.4c-8,1.9-15.9,1.7-24,0.5c-8-1.1-15.9-3.1-23.6-4.3c-5.8-0.5-11.7-0.5-17.5,0
		c-5.6,0.5-11,1.5-16.6,2.2c-11,1.5-21.8,2.4-33.7-0.2c-3.4,0-6-1.5-8.9-2.8c-1.4-0.9-2.8-1.7-4.3-2.4c-1.5-0.5-3.1-1.3-5-1.3
		c-3.1-1.7-5,1.7-5.2,3.4c-0.9,2.2-0.2,3.9,0.7,5.3c0.5,0.5,0.9,1.3,1.5,1.9c0.5,0.5,0.9,1,1.5,1.9c15.4,12.5,39.3,13.2,57.8,8.6
		c6.7-2.6,13.7-2.8,21.2-2.4c7.2,0.5,14.7,1.5,21.6,1.5c13.4,4.1,27.2,3.6,40.6,1.5c13.2-2.2,26.7-6,39.5-9.4c2.4-0.9,5.6-1.7,8-2.8
		c3.3-1.3,5.6-4.2,5.8-7.7C1330.6,1387.4,1324.3,1383.9,1320.2,1388L1320.2,1388z M1372.7,1347.2c-1.5-1.7-2.8-3.4-4.6-5
		c-3.4-3.4-7.7-6.3-14.2-6.3l-1.5,0.5c-5.6,3.6-3.2,8.4-1.7,10.8l1,1.5c0.2,0.5,0.2,1,0,1.7c-7.5,3.3-15.9,5.6-24.1,6.9
		c-10.6,1.9-20.9,0-31.5-2.6l-15.9-4.3c-5.6-1.3-11-2.4-16.8-2.6c-6.7,0.2-12.3,2.8-17.1,5.2c-2.2,1.3-4.6,2.4-6.9,3.4
		c-2.2,0.9-4.4,1.6-6.7,1.9c-6.5-2.8-13.2-5.8-20.7-7.7c-7.5-1.9-15.6-2.6-24-0.9c-6.9,0.9-13.7,2.8-20.3,4.6
		c-6.3,1.7-12.3,3.4-18.1,3.9c-6.3,0-12.5,0.9-18.5,0.7c-4.3,0-8.4-0.7-12.3-3.9c0.2-0.7,0.5-2.2,0.2-3.4c0-1.9-1-3.8-2.6-4.8
		c-4.8-2.2-8.6-0.9-11.8,1.5c-1.5,0.9-2.6,2.2-3.9,3.3l-1.7,1.7l-1.5,1.5l-0.9,1.3c-0.5,1.1-1,2.3-1.9,3.1c-0.9,1.3-1.9,2.2-2.8,3.2
		c-2.2,2.4-4.6,5.6-3.4,11.5c1.7,2.6,5,5.6,9.3,5l1.7-0.7l3.9-3.9c1-1,2.3-1.9,3.6-2.6c1.9-0.5,4.1,0,6.3,1.3
		c13.7,8.2,27.4,6.7,40.4,3.1c6.3-1.7,12.5-4.1,18.8-6.3c6.3-1.9,12.3-3.6,19-4.3c6.3-1.7,12.1-0.5,17.8,1.7
		c6.3,2.2,12.1,5.5,17.9,8.2c6,2.2,11.3,1.5,16.2-0.5c2.4-1,4.6-2.2,6.5-3.4c1.9-1.3,3.9-2.6,5.6-4.1c6-5.3,16.6-3.6,25.5-0.5
		c12.7,8.9,32.4,10.6,48.1,7.3c6-1.9,12.7-3.4,19.2-4.8c6.3-1.5,12.5-3,18.8-5.3l6.3,3.6c4.1,2.4,8.2,0,9.7-3.4l0.2-2.2
		c-1.5-3.6-3.2-7.7-6.5-10.6C1375.3,1350.2,1373.8,1348.7,1372.7,1347.2L1372.7,1347.2z M1211,1254.8c3.1,1.5,6.7,2.6,10.4,3.6
		c3.6,0.9,7.2,1.7,11.3,2.4c7.4-0.7,15.4-2.4,22.6-6.3l1.3-1.9v-3.4c0-1.5-0.5-3.4-3.6-5.2c-4.6-0.2-9.3,0.2-14,0.2
		c-4.6,0.2-9.1,0.5-13.7-0.2c-12.5-1.3-20.3-9.9-23.6-21.6c-5.2-16.2-3.4-31.1,0.2-46c1.7-7.7,3.6-15.1,5.2-22.9
		c1.5-7.5,2.6-15.1,3.1-24.8c-0.5-10.4-2.2-21.6-2.8-33.2c-0.7-11.3-0.7-22.6,2.4-33.5c-0.7-8.9-0.2-17.3,0.2-25.5
		c0.5-8.2,0.7-16.2-0.2-24.2c1.4-2.5,1.7-5.5,0.7-8.2c-0.2-1.3-0.7-2.4-0.9-3.9c-0.5-1.3-0.5-2.2-0.5-3.4l-0.7-1.7
		c-1.3-0.9-1.7-1.9-2.2-3.6l-0.7-1.3h-1.5c-1.7,0-2.8,0.2-3.9,0.9l-1.7,1.5l-4.1,1.9l2.6,1.3l-0.7,1.7c-0.9,16.2,1.5,31.5,0.5,45.7
		c-0.2,10.1-2.4,19.2-3.4,28.4c-1.5,9.3-1.7,18.8,1.3,28.7c0.5,6.3,1.3,12.5,1.7,18.8c0.7,6,0.9,12.3,0.2,18.3
		c-1.3,6-2.2,12.5-3.6,19c-1.3,6.3-2.6,12.5-5,18.8c-3.4,21.8-5.8,44.9,6.7,64.5C1198,1247.2,1204,1252,1211,1254.8L1211,1254.8z
		 M1592.1,324.7l3.6,3.1c19.8,14.7,41.2,25.3,64.1,35.8C1637.8,349.5,1615.3,336.5,1592.1,324.7z M1320.2,1099.6
		c1.7,1.3,3.9,0,3.9-2.2c-1.7-3.1-1-5.8-2.2-9.1c-1.5-4.1-5.3-6.7-6.3-11c-7.5-12.5-11.4-26.2-15.5-39.9c-1.7-3.4-4.3-6.3-8-6.5
		c-1.1,0.8-2,1.8-2.6,3.1c0.5,11,3.4,22.6,7.7,33C1303.4,1078.5,1308.2,1092.7,1320.2,1099.6L1320.2,1099.6z M1261.5,1264.3
		c1,0.7,2.2,0.9,3.4,0.7c2.2-1,4.8-1.5,8.2-1.5h9.2c7.7-0.5,15.8-0.5,23.6-1.5c8-1.1,15.7-3.4,21.7-8.4c10.1-5,10.4-17.3,8.9-27.4
		l-2.6-3.6c-5.6-0.5-8,2.4-8.9,6.3c-0.6,1.8-0.9,3.6-1.3,5.6c-0.5,1.7-0.7,3.4-1.3,4.6c-8.9,12.3-26.2,13-40.9,12.1l-18.8,4.6
		c-0.5,0.5-0.9,0.7-1.5,1.3l-1.7,1.1c-1.3,1.3-1.9,2.6-0.2,5.1L1261.5,1264.3L1261.5,1264.3z M1228.5,1289.5c-3.1,0.5-2.6,3.9-3.6,6
		c8.9,5,21.6,10.1,31.1,1.9c1.3-2.4,3.9-4.3,3.1-7.5c0.2-2.2-1.5-2.4-3.1-2.4C1249.2,1292.2,1236.9,1291.7,1228.5,1289.5
		L1228.5,1289.5z M1288,1314.6c-3.4-1.9-6.7-4.1-10.4-6c-3.6-1.8-7.5-3.1-11.6-3.6c-6.3-1.9-11.3-0.5-16.2,1.7
		c-2.2,1-4.6,2.2-6.7,3.4c-2.2,1-4.1,1.9-6.3,2.4c-10.4-6.5-20.7-5.3-30.5-1.7c-5,1.9-9.9,4.1-14.9,6.5c-4.7,2.2-9.6,4-14.5,5.6
		c-1.5,0.9-3.1,1.3-4.8,1.1c-1.7,0-3.6-0.5-5.2-0.7c-3.6-0.7-8-1.1-10.8,2.6c-0.9,1.3-0.7,2.4-0.2,3.4c0,0.5,0.2,0.9,1.7,2.6
		c9.7,4.1,19.5,3.9,29.1,0.2c2.8-0.7,5.6-1.9,8.2-3.1c2.6-1.3,5-2.4,7.4-3.6c4.8-2.2,9.3-4.1,14.7-3.9l1.3-0.2
		c1.7-0.2,3.4,0.2,5.2,1.1l3.1,1.3c1.1,0.6,2.4,0.9,3.6,0.9c0.7,0,1.7,0.2,2.6,0.5c0.9,0.2,2.2,0.7,3.1,1.3c2.2,0.7,4.8,1.5,8,0.5
		c9.9-8.2,19.2-6.3,29.1-2.4c5.1,1.9,10.1,4.3,15.5,6.3c5.2,1.7,10.8,2.8,16.8,2.4l1.7-1l2.2-0.2c0.7,0,1.5,0,2.4-0.2
		c0.9-0.2,1.7-0.7,2.4-2.2c0.5-2.4-0.2-6.5-3.9-8C1301.5,1322.2,1294.7,1318.9,1288,1314.6L1288,1314.6z M2175.1,857.1
		c0-12.7-4.3-25.7-6-38.5c-3.6-4.8-2.4-11.3-5.1-15.9c-0.9-12.3-9.3-21.2-11.8-32.8c-7.2-18.1-15.9-33.7-25.9-51.2
		c-1-13.2-2.4-24.6-5.8-36.5c-2.2-2.2-2.6-3.9-4.3-6c-0.5-2.2-2.2-4.1-2.6-6.7c-1.5-1.3-1.7-3.6-3.2-5.2
		c-5.3-10.8-12.3-23.3-21.2-31.3c-8.6-14.7-22.4-27.4-33.9-40.2c-2.6-2.2-7.5-4.6-8.9-7.5c-13-13.4-29.4-25-44.7-36.8
		c-3.8-1.6-7.4-3.6-10.6-6.3c-8.6-5.8-18.8-11.3-28.1-16.4c-20.3-8.4-38.5-17.8-59.6-25.5c-12.1-4.3-23.8-9.3-36.8-11.6
		c-11.3-0.9-20.5-7.7-30.3-11.3c-9.1-2.6-15.5-10.1-22.9-14.5c-7.5-6.9-16.4-11.3-23.3-17.5c-6.5-4.3-13.2-7.7-18.1-13.2
		c-21.6-16.8-38.5-44.5-64-58c-15.9-4.6-32.8-12.7-48.6-10.6c-22.4-10.6-43.8-21.2-63.5-35.8c-6.5-6-13.2-11-20.5-16.4
		c-27.7-28.1-63.3-47.9-103.9-48.4c-6.5,0.9-13,3.6-19.2,2.2c-17.5-30-53.6-33.2-83.5-43.8c-15.1-5.8-23.3-20.5-29.6-34.4
		c-0.5-4.1-3.1-7.2-3.4-12.1c-1.4-3.1-4.6-5.3-7.4-6.7c-4.3-1.9-8.9,0.7-12.1,3.4c-3.1,9.1-1.9,19.2-5.2,27.7
		c-3.6,6.3-7.3,13.4-10.6,19.2c-6.9,10.6-19.7,19-29.8,20.7c-9.9-5.6-20.9-7.2-31.7-9.7c-4.1-0.7-9.7,0-13.4-0.9
		c-24,0.9-48.8,5.2-67.6,16.2c-15.9,8.4-30.3,15.9-45.2,25c-12.5,12.1-28.7,17.3-41.2,28.7c-9.1,5.3-15.1,10.1-24,14.9
		c-21.6,15.4-50.3,27-77.9,23.8c-11.8,1.7-22.2-8-31.3-13c-1.7-1.3-3.1-3.1-4.3-4.1c-8.9-4.3-9.9-14.9-15.1-21.4
		c-4.3-2.2-1.7-8-5.3-10.8c-3.8-1.7-8.1-1.7-11.8,0c-15.4,13.2-31.5,23.8-39,41.9c-6.7,16.2-14.9,32.8-12.1,52.7
		c-6.5,5.6-15.4,8.6-22.4,14.2c-4.8,4.3-12.3,8.4-17.5,14c-6.3,6.9-14.2,14.2-18.5,22.6c0.7,2.2-1.7,2.2-2.4,2.8
		c-16.2,0.5-34.4,0.7-52.2,2.6c-24.2,3.1-46,14-68.3,21.6c-21.6,9.3-43,19.7-62.6,32.2c-9.3,4.3-18.1,12.1-25.9,18
		c-10.6,9.9-23.6,17.3-33,28.7c-6.9,6.7-13.7,13.4-18.3,22.4c2.4,6.5-5.3,13,1.3,18c-4.3,6.9-14,12.7-16.8,21.4
		c-30,12.5-55.1,32-80.6,52c-23.8,22.2-46.9,43.4-63.3,71.5c-3.6,1.9-1.7,6.3-5.3,7.2c-0.7,2.2-2.8,3.4-4.1,5.3
		c-5.2,12.5-12.7,23.6-16.8,36.8c-3.1,3.9-3.4,8.9-5.3,13.2c-0.7,2.2-1.7,4.8-2.2,7.2l-1.9,10.4c-0.9,2.4,0.7,5.6-2.2,6.9
		c-1.3,2.8-3.1,6.9-0.9,9.9c-1.5,7.7,2.2,13,5,18.5c-0.2,5-5.3,8.4-7.2,12.7c-3.4,4.1-6.3,9.3-9.7,13.4c-2.2,6.9,4.3,12.7,8.4,17.1
		c10.6,3.4,21.4-1.3,31.5-3.9c14-3.1,25.5-10.8,38.7-15.9c4.1,15.4,8,32.8,22.2,43.4c7.4,4.3,17.1,5.6,25.7,5.2
		c8.9,3.1,15.1-3.4,21.8-5.8c0.9,0,1.5,0.7,1.3,1.7c-1.9,17.5,5,33.5,14.5,46.7c10.8,6.9,19.2,14.2,30.8,20.7
		c-0.9,8.9,1.3,17.3,2.6,24.8c2.8,4.3,2.8,10.6,6,14.9c10.4,21.8,31.1,34.1,51,45.5c15.1,5.3,27.9,7.2,44.5,2.4
		c0.9-0.9,3.1-1.7,4.3-1.3c3.1,11.6,7.2,22.4,12.5,33c3.1,3.6,5.6,7.4,7.7,10.6c2.4,6.9,8.4,11.8,12.5,17.5
		c6.3,8.6,16.8,11.7,22.4,21.4c4.6,13.4,15.9,25.5,29.6,30c1.5,2.6,6.3,1.5,5.6,5.2c-4.6,5-4.6,12.5-8.2,18.5
		c0.5,11.8-0.7,27,4.8,37.8c-0.2,4.1,2.6,6,3.4,10.1c0.2,0.2,0.9,1.3,1.9,1.3c1.9,9.4,9.9,13.8,15.9,19.2
		c2.4,9.7,9.7,17.1,16.8,23.6c4.8,3.2,11,5,16.6,7.2c0,2.8,0,5.6,0.9,8c1.7,8.2,3.9,16.2,6.5,23.8c0.9,6,4.8,11.8,8,16.2
		c1.9,5.8,6.7,10.1,8.9,15.4c-3.4,5.3-5.8,11.6-8.4,17.1c-4.8,15.7-5.3,29.1-1.3,44.9c0.9,2.2,0.9,4.8,3.1,6.7
		c6.3,18.1,23.1,31.5,40.2,39.7c4.3,6,6.7,12.3,7.2,19.7c2.6,12.7-1.7,25-3.9,37.3c-0.5,6.5-1.5,14.7-3.4,20.7
		c-0.2,1.5,0.2,2.6-0.7,3.6c-0.2,9.7-2.4,17.3-3.6,26.5c-0.2,3.2,0.2,4.6-0.9,6.5c0,13-3.1,28.1,1.5,40.4c-0.5,13.2,5.3,25.3,8,37.6
		c9.3,14.5,17.3,30.8,30.8,44.5c2.6,0,3.4,2.8,5.2,5c0.5,1,2.4,1,2.4,2.4c14.7,11,29.4,21.8,46.9,27c9.3,3.9,19.7,4.6,29.1,6.7
		c17.1,1,38,2.2,54.2-2.4c48.8-10.4,84-44.9,128.2-65.4c14.5-4.6,28.1-12.1,44.7-11.4c3.6,3.2,4.1,9.9,8,11.6
		c4.8,10.6,15.1,17.5,25.5,21.6c8,3.4,18,3.4,27.9,4.3c11.8,0.2,24.6-1.9,34.7-8.2c6.3-1.1,7.2-7.2,12.7-10.4
		c10.6,8,24.8,9.7,38.5,9.7c5.8,2.6,12.7,3.1,19.5,2.4c13.7-4.6,24-14.7,31.1-27.2c2.6-4.6,5.2,0.7,7.4,2.2c1.9,1.7,5.1,2.2,5.8,4.3
		c12.3,11.3,23.8,22.2,37.8,31.7l18.1,10.6c7.5,1.3,13.8,6.3,20.7,8.4c9.3,2.2,17.1,8.2,27.9,8.2c0.9,0,1.9,1.7,2.8,0.2
		c5.8,1.1,12.1,1.9,17.9,4.1c8.6-0.5,17.3,2.2,25.9,1.7c4.3-0.2,8.2-0.7,12.3,0.5c9.9-0.7,19.2-3.3,29.4-4.1
		c8-0.7,15.4-5.6,23.1-7.7c17.5-8,34.9-19.5,46.7-34.8c8.4-2.8,7.7-12.7,13.4-17.5c2.6-9.7,7.3-19.5,13-27.9c-1-1,0.2-1.9,0.9-2.2
		c-0.2-5.6,3-9.7,4.3-14.5c0.7-8,4.6-14.9,5.2-22.9c5.1-20,6.5-44.9,6.3-63.3c2.8-9.7,0.7-15.9,1.9-25.7c-0.9-5.1-0.9-9.4-1.7-14.7
		c-1-6,0.5-11.5,1.9-17.3c2.2-5.8,5.1-10.6,7.3-16.4c0-3.4,3.4-5.3,3.4-8.9c7.4-10.1,11.8-21.8,19.2-31.1c0.7-4.1,3.2-7.2,3.9-11
		c3.1-6.3,5.8-12.3,6.7-19.5c0.9-2.2-0.2-5.6,1.1-8c-0.5-9.7,0.7-20.9-1.1-30.4c-0.2-10.1-5.3-17.8-5.8-27.4
		c6.7-7.5,8.6-17.1,12.1-26.2c0.2-8,3.1-15.4,1.9-23.3c2.6-4.8,6.7-6.3,8.4-11.8c3.1-13,6.3-28.9,2.6-42.8c0.5-5.2-3.3-9.3-2.6-14.5
		c4.8,0.2,9.6,1.9,14.9,2.6c13-0.5,26.5,3.4,39.3-1.5c5.8-4.6,12.1,1.9,19,1.5c6.9-1.9,12.1,3.4,19.7,1.5c4.1-1.3,3.9-5.6,4.8-9.3
		c-10.1-5.3-11-15.4-17.1-23.6c-6.7-13,3.9-26.4,5.2-39.9c0-1.7,2.2-2.4,1.7-4.6c5.8-9.7,8.4-20.9,12.7-30.8
		c0.5-2.2,2.8-4.3,2.6-6.5c4.3-6.5,6.9-14,9.7-21.4c3.1-7.2,4.3-16.4,6.5-23.8c3.6-12.1,3.2-22.9,2.2-36.1
		c-0.2-11-3.9-21.4-7.7-30.8c-1.7-1.5-2.2-4.1-2.6-5.8c1.5,1.7,4.8-1.7,7.3,0c18.3-0.5,31.1-14.5,41.4-28.7c-0.5-1.5,1-1.9,1.7-2.8
		c0.7-4.6,4.3-8.4,5.3-13.4c-2.6-8.6,7.7-11.3,11.7-16.6c6.5-14.7,12.1-30.5,9.9-48.6c1.1-3.9,5.2-4.1,8.2-7.2
		c1.1-0.7,3.3-1.5,4.8-0.2c1.7-0.9,4.1,1.3,6.3,1.9c9.7,8.6,18.1,24.6,33.9,18.8c10.1,0.7,19.8-6.7,26.1-14.2c0.2-4.1,5.2-5,5.2-9.1
		c0.5-2.6,0.7-6,3.4-7.7c2.6,2.4,5.8,6.3,8,9.3c11,8.6,21.6,22.2,33.9,26.7c5.2,4.3,13.7,2.2,19.9,5c6.5-2.2,13-2.2,19.2-4.3
		c3.9,4.8,10.1,8.9,16.6,9.9c3.6,1.7,8.4,2.4,11.8,3.9c6.7,0.2,12.5-2.6,19.5-3.1c2.8-3.6,8.4-3.6,12.1-6c1.5-1.9,2.6-5.3,4.8-5.8
		c2.6,2.8,6.5,6,11.4,6c2.8,2.8,5-1.5,7.2-2.2C2182,887.5,2174.8,873.7,2175.1,857.1L2175.1,857.1z M1825.5,497.4
		c15.1,6,48.1,0.7,76.6,15.4c25.7,13.2,51.7,19.2,75.6,36.8c13.7,10.1,28.1,20.3,42.1,30c10.6,11,26.2,25.3,38.5,33.9
		c12.5,11.3,19,27,30.8,37.8c2.2,7.4,9.7,12.1,10.4,20c3.6,1.9,1.9,6.3,5.3,8.4c3.9,6.5,6.5,13.7,6.5,21.4
		c-48.6-40.4-87.1-90.9-146.6-117.7c-99.9-60.9-307.9-29.4-357.5-103.4v-3.1c50.5,32,98.4,21.8,156.1,19.2c10.6,0.7,20.3,1.7,29.6,0
		C1800.2,493.1,1817.7,494.6,1825.5,497.4L1825.5,497.4z M1803.6,479.2c-28.9,3.9-196.9,16.4-193.7-31.5
		c38.5-10.4,77.7-18.5,117.9-14.2C1741.3,430.3,1796.6,467.8,1803.6,479.2L1803.6,479.2z M1733.3,414.2c-13.2,4.8-29.4,0.7-43.4,2.2
		c-20,1.9-39.7,8-59.4,9.1c-5.3,0.5-40.2,8.6-41.6,11c-1,1.7,5,16.4,5.5,20.5c-10.1,12.3-45.7,27-61.8,25
		c-19.5,1.7-37.1-9.9-56.3-8.9c-39.7,1.9-66.3,23.8-100.8,30.3c13.8-20.9,39.5-43,58.7-58.9c82.5-67.8,89.8-10.1,175.6-47.3
		C1660.5,375,1693.4,370.9,1733.3,414.2z M1895,710.7c-3.4,3.1-8.6,2.8-12.3,6c-4.8-14.2-14.5-12.7-22.4-21.8
		c11.3-0.7,43.8,3.6,51,12.7C1905.6,707.3,1900.8,710.9,1895,710.7L1895,710.7z M1969.9,785.2c-45.7,0-62.8,40.2-100.4,53.9
		c-1-28.1-24.8-51.5,0.9-90.2c5.1-7.2,12.7-13.2,20.7-17.3C1937.3,707,1956.9,748.9,1969.9,785.2L1969.9,785.2z M1808.6,671.6
		c-0.2,0-2.8-0.9-2.8-0.2c-12.5-5-44.7-4.8-57.7-1.3c-74.6,20.3-140.3-28.1-187.2-80.6c-6.5-7.4-14.5-9.9-20.7-16.2
		c24.1-6.5,48.4-17.3,73.6-18.8c26.5-1.5,54.8,8.9,81.1,12.5c27.2,3.6,53.6,2.2,80.9,4.1c20.9,1.5,54.4,8.9,71,21.6
		c7.7,6,19,11.6,25.5,18.8c14.9,16.6,25.3,35.2,44.7,47.7C1889.8,688,1842.8,680.1,1808.6,671.6L1808.6,671.6z M1596.2,648.8
		c8.6,7.7,19.2,12.3,28.9,19c24.2,13,98.9,33.2,123.1,18.5c0,1,1.5-0.5,1.7-0.9c40.4-12.1,96.5,4.6,116.4,42.8
		c-19.2,18.5-36.8,101.7-9.1,116c-44,33.5-57.2-52.9-115.7-45.5c-7.4-9.3-40.2-35.6-52.5-32c-6.3,1.9-10.8,10.8-16.8,13.7
		c-14.2,6.9-60.4,3.4-72.7-7.2c-4.6-3.9-2.4-13.4-3.2-19c-2.2-14.7-30.8-100.4-38-113.6c-11.4-20.7-26.2-34.1-39.3-53.4
		C1544.8,593,1575.7,630.2,1596.2,648.8L1596.2,648.8z M1613.3,834.3c-10.1-1.9-15.5-11.5-24.1-15.6c0.5-6.9,5-19.9,7.5-26.7
		c29.1,14.5,75.6,16.4,99.9-8c5.2,1.9,27.9,19.5,31.7,24c-0.2,4.3,4.8,6.5,5.8,10.6c3.1,2.4,3.6,6.9,6.7,9.3
		c2.2,6.5,3.4,13.7,3.4,20.7l-1.9,2.2c-9.9-10.8-15.8-22.1-27.9-32c-4.8-3.9-10.4-5.6-12.7-12.1l-7.7-2.6c-6.3,2.6-6,9.9-9.7,14.5
		C1688.8,839.1,1627.5,846.3,1613.3,834.3L1613.3,834.3z M1613.3,1370.1c2.6,0.2,5.3-0.6,7.4-2.2c11.8-11,17.1-26.1,28-36.6
		c3.9,3.2-1.5,5.3-1.9,8.6c-1.7,7.2-6.5,12.7-8.9,19.5c-4.1,8.4-10.8,15.9-13,25.7c-13.2,17.9-29.1,35.4-41.9,51.7
		c-5.3,6.5-11,13.2-16.2,20.3c-1.7,1.9-3.2,4-4.3,6.3c-3.4,3.9-6.7,6.7-9.7,10.8c-1,3.6,0.9,5.8,2.8,8.4c2.8,1,6,1.3,9.7,0.5
		c19.5-22.2,36.8-46.7,55.5-69.5c7.2-4.1,9.9-13.2,14.7-19c5.2-9.3,14-18.1,18.3-29.1c2.2,0.7,1.9,3.9,1.7,6c-1.5,6-5.1,8.6-7.3,14
		c-5.6,9.7-13,19-18.8,28.7c-9.1,13.4-20.7,22.9-28.1,36.8c-10.4,12.7-18.8,25.5-29.4,35.4c-8.2,8.6-15.6,19.8-24.2,26.7
		c-13,14.2-27,30-41.4,41.1c-4.6,5-10.8,8.4-15.1,13c-7.5,9.9-19,14.7-27.4,23.8c-6,2.2-10.8-2.8-16.6-4.3
		c-3.3-2.8-9.9-3.1-10.1-8.9c10.6-8.2,22.4-17.3,32.2-26.2c8.6-9.9,20.9-20.7,29.6-31.7c0.2-3.2,4.1-6,2.2-9.7
		c-1.9-2.4-4.3-4.8-7.3-2.6c-12.1,10.6-25,26.2-37.2,36.8c-4.3,2.6-7.7,6.7-11.8,8.6c-0.2,2.4-3.6,2.8-5,4.1
		c-5.6,5.6-12.3,10.1-18.5,14.7c-6.5,2.2-14.5-2.2-20.3-4.6c-5.1-1.5-12.7-2.6-15.4-6.7c14.9-8.9,25.5-20.9,38.7-31.1
		c16.4-11.4,27.4-30.4,43.4-42.1c27.9-28.7,49-56.1,72.6-86.9c16.8-25,32-46.9,46.4-73.2c1.3-3.1,2.4-6.9,5.3-9.9
		c1.5-4.1,3.6-7.7,4.6-12.5c3.1-5.3,4.1-11,8-16.4c1.7-2.6,2.2-6.5,6-7.4c3.1,2.2,3.6,4.6,6.7,7.4c6.7,8.4,15.5,15.5,20.7,24.8
		c-0.9,5.6-5.2,10.4-7.7,15.7c-7.5,11.8-14.5,24.1-20.9,36.5C1610.4,1367.3,1611.3,1369.2,1613.3,1370.1L1613.3,1370.1z
		 M1609.4,1550.8c0.5,17.9-4.3,35.4-7.7,52.9c-2.2,1.8-3.2,4.7-2.8,7.4c-0.2,1.9-1.7,3.6-2.4,5.6c-2.8,8.2-8.4,15.9-17.1,18.3
		c-13.8,1.5-29.6,1.5-41.4-3.9c-6-1.7-10.8-5-15.9-6c-12.5-7.3-29.4-15.9-40.9-23.6c8.9-8.4,17.9-14,25.5-22.4
		c23.3-17.8,43-41.1,63-61.3c13.2-15.9,27-29.6,39.1-46.4c5.6-8,13.8-16.4,18.1-24.6c-0.5,5.3-4.1,6.7-4.3,12.1
		c-2.8,7.5-5.8,15.1-7.5,22.9c-1.5,10.6-3.9,22.6-3.9,33.7C1608.9,1526.8,1611.3,1539.1,1609.4,1550.8L1609.4,1550.8z M988.2,1561.2
		c3.6,6.5,7.7,12.1,14.2,17.3c11.5,11.4,23.1,23.1,35.2,32.8c0,2.6-3.4,4.1-5.6,5.1c-6.3,0-11.3-5.1-16.6-7.7
		c-8.9-9.1-19.5-11.3-26.5-21.8c-4.6-5-9.1-9.4-13.4-13.2c0-2.4-0.9-1.3-2.2-3.1c-3.1-4.9-8.4-8.4-13-13.2
		c-4.3-4.3-8.2-10.6-13-14.9c0.2-2.2-2.4-2.8-2.6-4.8c-5.2-6.9-11-10.6-15.1-18.1c-5.6-5.3-8.9-12.7-14-18.5
		c-3.6-8.4-10.1-16.4-14.2-24.6c-0.9-3.2-2.8-5.3-3.4-8.4c-2.8-1.9-1.9-5.8-4.8-8c-1.5-8-8-14.2-9.9-22.9
		c-2.8-6.4-4.9-13.1-6.3-19.9c-1.9-7.3-5.6-15.7-7.2-21.4c1.9-4.6,5.3-8.4,7.7-12.3h2.4c3.4,13.4,10.8,24.6,14,37.3
		c6.7,14.2,12.7,28.6,19.5,42.3c3.9,1.3,5.3,8.4,10.4,6.3c3.1-0.9,4.6-4.1,5.6-7.3c-0.9-5.5-2.6-10.8-5.2-15.1
		c-0.9-6.5-5-12.1-7.7-17.8c0-3.4-3.9-4.1-3.4-7.5c-0.9-4.3-4.1-8.9-4.8-14c-3.1-7.5-6.5-17.1-9.9-24.6c-0.7-6.3-3.1-11.8-3.9-18.1
		c8.9-7.5,18-16.6,26.4-23.6c2.6,3.6,1.7,8.9,5.3,12.3c5.8,27,20.9,49.6,32,73.9c20,30.5,41.2,62.6,68.6,89.3
		c15.1,17.3,31.5,33.9,50.1,47.8c6.9,5.6,15.4,10.8,21.8,16.2c0.2,0.9,0,2.2-0.9,2.2c-8.2,4.1-16.8,9.1-25.3,13.2
		c-0.9,0-2.2,0.2-1.9,1.3c-2.4-1.3-2.2,3.3-4.6,2.2c-2.8,2.2-6.9,0-10.4-1.5c-10.8-6.7-17.5-14.2-28.1-23.3
		c-3.4-3.9-7.5-7.1-12.1-9.4c-3.4-3.6-8-6-11-8.6c-4.3-1.5-8.4-2.8-13-2.6C988.9,1555.8,987.5,1558.2,988.2,1561.2L988.2,1561.2z
		 M894.3,1534.7c-0.2-11-2.4-20.3-1.3-31.7l1.3-1.7c12.5,16.8,23.8,34.8,39.3,51.4c6.9,8.6,14.5,18.5,23.8,25.7
		c13,15.1,27.9,31.1,46,42.1c2.8,3.1,6.7,4.8,9.3,6.9c-4.3,6-11.5,8.2-17.9,10.6c-2.2,2.8-6.3,3.6-9.3,5c-14,5.1-24.6,13-38.7,16.6
		l-3.6,2.6c-10.6,4.3-24.6,4.8-34.4-0.9c-2.8-1-2.6-3.6-5.2-3.9c-1.7-1.5-3.4-3.1-5.2-4.6c-8.2-17.1-6.3-36.3-6-56.8
		C894.1,1577.3,891.2,1554,894.3,1534.7L894.3,1534.7z M836.8,1390.6c1.7-6,3.9-11.5,4.6-17.5c4.6-8.9,6-15.6,12.5-23.8
		c0.7-1.5,1.6-2.8,2.8-3.9c15.4-21.4,33.2-39.1,56.6-53.6l2.2,1.3v14.9c-0.5,2.6-1.3,5.2-2.4,7.7v1.7c-1.3,0.9-2.4,2.4-2.2,4.3
		c-15.4,20.3-40.2,32.8-53.6,55.3c-4.6,4.6-7.7,11.3-9.1,17.8c-2.8,2.4-0.7,7.5-3.6,9.4c-0.2,2.2-0.7,3.9-0.7,6.7
		c-1.9,0.7-0.9,1.9-2.4,2.8C833.2,1410.9,838.5,1398.8,836.8,1390.6L836.8,1390.6z M1089,1549.7c-21.8-17.1-40.2-38-59.4-57.5
		c-19.9-25.7-39.7-48.4-55.1-76c-8.9-19.7-18.1-34.1-25.3-53.8c-1.9-7.5-4.6-14.9-7.7-22.2c-4.1-12.1-9.7-25-5.2-38.7
		c0.2-5.8,0-11.4-1-16.6c1.7-3.6-2.6-5.3-1.7-9.9l1.7,1.5l0.2-0.2c0.9,1,0.2,3.2,1.3,5.1c1.6,1.4,2.6,3.4,2.6,5.6
		c5.8,17.8,18.3,32.8,25.5,50.3c7.4,15.1,16.6,28.6,26.5,42.1c3.4,3.9,6,8.6,9.9,12.1c5.6,0.7,6.7,7.2,10.8,10.1
		c22.2,24.2,48.4,39.5,73.4,59.2c9.3,10.1,21.6,17.1,29.4,27.7c11.8,9.7,20.3,21.4,33,30c23.6,25,61.1,17.9,93.5,20.3
		c27.4-1.1,53.7-6.3,77.3-16.8c10.6-0.5,18.1-6.7,27.2-10.8c8.9-7.2,16.6-14.9,22.9-24.6l2.6-0.9c11.3-9.4,21.6-21.6,31.7-31.5
		c13.3-11.3,26.3-22.8,39-34.7c11.5-6.3,19.7-17.5,28.6-26.5c15.6-12.7,27-31.7,39.9-47.3c5.6-8.9,12.7-17.9,17.3-27.7
		c4.6-6.5,6-15.6,12.5-19c3.2,1.9,1.3,6.3,4.3,8.6c2.2,2.6,2.2,7.5,5.8,9.4c1.7,4.3,2.4,9.1,5.3,12.7c0.7,6,8.2,12.5,0.7,17.1
		c-11.8,20.7-27.2,38.7-40.4,58.5c-8.9,11.3-18.3,21.2-27.7,32.8c-14.8,18-30.8,34.9-48.1,50.5c-14.5,19.5-34.4,33.2-52.7,49.3
		c-5.8,4.1-9.6,8.4-16.8,11.3c-5.8,3.2-10.8,8.9-18.3,9.9c-24.6,1.9-50.1,8-71.9,20.9c-7.5-1.7-13-4.6-20.3-6.5
		c-12.5-2.6-25.5-2.8-35.8,3.2c-5.3,0-8.6-5.3-13.2-6.9c-14.5-5.6-30.5-8.6-45.5-5.6c-10.8,1.1-22.6,3.1-33,6.7
		c-6.5,3.1-11.5-3.6-17.8-3.9C1105.4,1561.6,1098.1,1555.1,1089,1549.7L1089,1549.7z M1592.5,1279c-1.5-1-0.2,0.5-1.3,1.1
		c-1.9,3.4-4.1,6.7-4.8,11c-2.8,5.8-5.2,11.4-8.2,16.6c-0.7,3.6-4.6,5.8-6.3,9.4c-4.1-3.6-8.2-7.3-8.9-12.3
		c-2.7-5.8-4.6-12.1-5.2-18.5c-4.1-6.9,1.5-14.9-1.9-22.4c3.2-8.2,5.8-16.6,10.1-24.8c1.7-4.3,2.6-9.7,6-12.7l0.2,1.5
		c1.7,0.5,1.7,2.8,3.1,4.3c4.8,12.1,13.8,22.6,20.9,33.5C1596.4,1270.5,1593,1274.2,1592.5,1279L1592.5,1279z M1577.4,1096.1
		c-0.7,15.6-4.6,33.7-6.7,50.3c-2.2,10.1-4.1,19.5-7.2,29.6c-1.9,14-7.7,26.7-10.1,40.6l-5.6,21.4c-1.9,4.1-4.1,8.6-5.2,13.2
		c-3.2,6-6.5,14-10.1,19.7c-0.7,2.6-2.4,4.8-3.6,6.9c-5.6,10.1-14.9,19.2-17.5,30.8c-1,1.9-2.6,3.3-3,5.2c-2.2,1.5-2.8,3.6-4.6,5.8
		c-0.5,2.2-2.8,4.8-4.1,6.5c-15.9,20.7-28.6,41.6-49.3,58.3c-4.6,5.8-10.6,11-15.1,15.8c-2.8,1.9-5,3.6-7.2,4.3
		c-12.7,13.2-26.7,22.9-40.4,35.8c-18.1,14.5-35.8,33.5-53.8,48.8c-12.3,10.6-27,18.3-43.8,21.2c-34.4,10.6-70.8,8.4-105.8,6.5
		c-16.4-2.2-27.2-13.8-38.2-24.2c-6.7-8-17.1-16.2-23.8-25.5c-9.7-10.1-24.4-19.7-33.9-29.6c-4.1-2.3-8-4.9-11.8-7.7
		c-4.6-5-10.1-7.7-15.4-12.1c-19.2-14-35.2-29.4-51-47.3c-5.8-1.9-6.7-7.7-10.8-11.6c-1.7-4.8-6.3-7.5-7.4-13.2
		c-2.2-4.3-6-9.4-8.2-14.5c-0.2-2.4-2.2-3.4-3.1-5.8c-5.8-11-11.8-24.1-18.3-35.6c-4.6-8-5.6-17.1-9.9-25.3
		c-2.6-7.5-6.7-14.5-8.9-21.8c-3.4-7.2-6.5-14.7-8.9-22.2c-8.6-31.3-19.2-63.5-22.4-97.2c-1.7-1.5,0.2-4.8-1.9-6.7
		c-1.9-16.2-3.9-28.6-4.3-44c-2.4-16.4-1.7-38.7-0.7-54.8c12.5-4.6,25.3-10.4,34.4-21.6c5.2-3.4,8.6-8.9,14.5-12.7
		c3.6-1.3,7.4-1.7,11.3-2.2c-0.9,5-5.2,9.3-7.7,14c-5.8,11-15.9,20.7-15.6,34.7c2.8,4.1,5.8,7.2,10.8,7.7c6.3,0.9,11.3,1.7,17.9,0.7
		c-2.4,1.5-0.9,3.6-0.9,5.6c3.1,3.1,7.4,1.3,11.3,1.3c-0.5,1.7-0.7,4.3,0,6c20.9,24.8,49.6,37.1,83.5,37.1c1.7,2.4,5,0.2,7.4,0.2
		c1.7-0.9,3.1-0.5,5-0.5c26.7-5.2,52.9-15.6,79.2-23.8c5.6-4.1,14.9-6.9,13-15.4c-10.4-15.4-27.4-22.6-41.4-32.2
		c-9.7-3.1-20.3-7.7-30-8.9c-18.1-2.8-40.9-1.7-60,3.6c-19,6.9-36.3,16.6-54.2,23.1c-1.5,0.2-3.4,1.3-4.6,0.9
		c-0.7-1.5,1.9-2.4,3.1-3.1c13.4-9.1,13-8.9,25.9-18.1c1.3-0.7,18.8-11.8,20.7-12.3c16.2-8,25.5-12.3,48.8-10.1
		c7.2,2.8,14.7,4.1,21.2,7.4c1.8,0.3,3.6-0.5,4.8-1.9c0.5-7.5-2.4-10.1-8.4-15.1c-11.3-2.8-19.5-6.3-35.4-5.3
		c-10.6,2.2-21.2,3.1-31.1,8.4c-6,1.9-11,4.8-15.6,8.2c-9.7,4.8-11.3,9.1-20.7,13.4c-3.9,3.9-13.8,9.9-17.5,13.4
		c-5,1.7-12.5,5-17.1,4.3c-0.2-4.6,4.3-6.7,5.2-11.6c1.3-1.5,3.4-2.2,2.4-5c3.9-4.6,8.4-10.1,11.3-15.4c9.1-8,14.9-14.9,27.7-21.4
		c19.2-8.2,40.2-7.4,55.3-8c34.1,3.1,54.4,8,76.7,6.9c15.4-2.8,31.7-3.9,44-14.2c2.2-2.2,1.9-5.6,3.1-8.2c-2.8-3.6-6-3.6-9.3-1.7
		c-20.5,10.1-27.7,7.7-45.3,8.9c-17.3,0.7-30-1.3-42.8-1.7c-17.9-2.2-31.5-7.7-49.3-4.6c-5.6-0.9-18.3,5.8-23.1,4.3
		c0.2-18.8,16.2-34.9,26.7-51.2c10.8-8,22.4-16.4,35.4-21.4c8-6.3,18.8-10.1,23.8-19.5c7.7-5.8,12.7-14.7,18.5-22.4
		c1.9-4.3,1.9-8.4,1.9-13.8l0.7-2.2c13.4-8.2,25.7-17.1,38.7-25.9c1-1.3,3.9-3.1,4.1-4.8c6.3-5,14-11,18.3-17.9
		c3.9-4.3,5.8,1.3,9.3,2.4c1.9,4.8,7.4,5.3,11.6,7.2c7.2,2.8,15.1,3.9,22.6,6c23.1,1.3,48.8,3.9,72.1,4.8h1.9
		c14.9,1.9,31.5,2.2,46.7,5.3c22.9,4.3,45.7,6,68.6,13.2c18.3,4.8,36.3,10.6,54.2,17.5c7.7,3.9,17.3,8.2,23.6,14.2
		c14.5,9.2,27.9,20,39.9,32.2c2.6,3.9,5.6,7.2,8.2,11.3c6.3,6.5,10.1,13.4,14.7,20.3c2.8,5.6,8,10.6,8.6,17.1
		c3.6,2.6,0.5,8,4.1,10.8c-0.5,3.4,3.4,3.9,5.3,5.6l5,0.7c0.7,18.1,3.6,38.2,3.2,57.5c2.6,29.6-1.9,57.9-3.2,87.8
		C1577.4,1090.5,1577.4,1094.4,1577.4,1096.1L1577.4,1096.1z M900.1,970.5c4.1-14.7,32.2-72.7,47.9-74.3c3.4-0.5,1.7,5,1.3,6.5
		c-2.7,8.3-4.8,16.8-6.3,25.5c-1.9,11-1.9,21.8-0.2,33c1.9,12.5-18.1,22.6-19,28.1c-4.1,2.6-17.8,12.7-18.8,3.6l-1.3-3.4
		C905.9,981.7,897.5,979.1,900.1,970.5L900.1,970.5z M881.6,1080.7c-0.9-0.2,0.5-3.4-0.9-4.3c-2.6-7.9-5.6-15.6-9.1-23.1
		c-2.6,0.2-1.5-3.4-3.6-4.3c-0.2-4.1,2.8-6,4.3-9.3c1.5,0.2,1.7-1.3,2.8-1.5l2.2-0.7c0,0.9-0.2,2.2,0.2,2.8c0.7-0.5,0.7-0.9,1.5-1.9
		c-1.7,0-0.7-0.9-0.7-1.7c0-0.2-0.2-0.2,0-0.5v0.5c0.6,0.2,1.3,0.5,1.9,0.5c0.2,1.3,1.5,0.5,2.4,1.3c3.1,1.9,0.7,7.5,2.6,10.8
		c-0.7,13.4,0.5,23.6,1.7,36.3c1.7,2.6,0.5,8.4,1.3,12.3c0,2.2-2.4,1.5-3.4,1.3C880.6,1093.9,884.5,1085.5,881.6,1080.7
		L881.6,1080.7z M877.2,991.6c-7.2,3.4-10.1,13-19,13c-69.5,0.5-29.1-68,4.1-65.7c8.4,0.7,18.5,3.9,26.7,2.2l1.5,2.6
		C884.1,955.1,881.1,987.1,877.2,991.6L877.2,991.6z M890.5,834.6c-8.9,12.7-16.2,25.3-23.8,38.7c0-0.5-1.9,0-2.2,0
		c0.2-4.6-1.5-11,1.7-15.1c10.1-79.9,126.5-77.9,185.3-80.6c16.6-0.7,35.6-5.8,51.5-3.4c22.2,2.8,39.9-8.2,60.4-12.5
		c-0.9,6-6.7,9.9-10.1,14.5l-2.6,2.2c-3.6,2.2-13.7,9.1-15.4,11.5C1061.8,865.8,943.9,757.3,890.5,834.6z M1095.9,836
		c-14.2,22.9-35.6,29.4-56.3,43.6c-22.6-6.3-46.7,83.8-76.8,81.8l-2.6-2.6c-5.3-46,20.5-113.8,72.4-122c21.2-3.4,39.7,4.1,62.1-4.1
		L1095.9,836L1095.9,836z M900.1,784.5c-45.6,31.1-132.8,73.4-180.5,21.8c36.1-4.6,49.8-3.1,81.8-24c42.6-28.1,109-90.9,166-63.3
		l1.7,1.3c18.5,1.7,55.1,25.7,73.2,35.6C1011.7,771.6,949.5,750.8,900.1,784.5L900.1,784.5z M877,920.7c-6-4.1,0.9-23.6,3.1-29.4
		c22.6-60.2,41-63.7,100.1-65.9v0.7c6.3-0.2,12.3,1.7,18.1,2.8c-1.9,3.1-6.5,5-9.9,6.7c-8.6,4.6-12.1,13.8-19.9,18.8
		c-27.9,17.5-42.8,39.9-65.2,62.6C894.3,913.7,885.2,926.2,877,920.7L877,920.7z M990.3,1044.8c3.4-0.7,7.7-4.1,9.9-0.9v8.6
		c-0.9-0.2-2.4-0.2-2.8-1.5C994.6,1049.6,992.2,1047.4,990.3,1044.8L990.3,1044.8z M1115.2,1047.5c0.5,4.6,0.2,8.4-1.7,11.7
		c-1.3,1.7-1.7,2.6-1.9,3.1c-3.4,3.9-6.7,5.3-10.8,6.3c-4.3,1.3-8.9,2.2-12.5,3.1c-17.9,6.7-42.8,2.2-60.2-3.6
		c-2.4-1.3-4.8-2.2-7.2-3.4c-1.4-0.6-2.6-1.5-3.6-2.6c0.9-2.2,1-4.6,0.5-6.7c-0.9-3.4-1.5-6.7-2.4-10.1c0-1.5,0.2-2.6,0.7-4.1
		c0.5-1.5,1.3-2.8,1.7-4.1c15.4-8.6,32.2-16.4,51-17.3c8.6-0.5,17.3,0.3,25.7,2.4c7.4,1.7,14.9,4.1,22.2,6.3c-1.5,1-2.6,2.5-3.1,4.3
		C1113.8,1037.8,1114.7,1043,1115.2,1047.5L1115.2,1047.5z M1128.5,1040.5c0-1.9-0.7-4.8-1.9-7.2c8.5,4.9,16.4,10.8,23.6,17.5
		c-0.5,0.5-1,0.8-1.7,0.9c-0.7,0.5-1.5,0.7-2.4,1.3c-0.7,0.2-1.7,0.7-2.6,1.3c-2,0.9-4.2,1.7-6.5,2.2l-5.8,1.5
		c-0.7-2.6-0.5-5.2-0.5-7.7C1130.6,1046.9,1130.4,1043.6,1128.5,1040.5L1128.5,1040.5z M1363.2,731.6c62.6,30,128.9,10.6,176.8,68.8
		c17.1,20.7,29.6,48.8,27.7,76.7l0.7,4.1l0.2,4.1l-2.2,2.6c-10.4-7.2-16.8-18.8-26.2-27.4c-63-58-130.9-70.6-214.4-81.1
		c-17.9-2.2-125.4-5.6-127.6-21.8c-0.2-1.3,26.7-52,29.8-60.4c1.9-4.6,4.6-8.6,5.3-13.4c1.7-5.8,4.6-10.8,5-16.8l3.6-8.6
		c23.6,11.5,49.3,64,106.4,57.2C1349.4,723.9,1359.2,725.4,1363.2,731.6L1363.2,731.6z M1357.8,690.2c81.6,5.6,93.7-27.4,182.2,11.5
		c15.9,6.9,33.7,21.8,37.8,39.5c4.1,16.6,7.5,58-5.8,71c-6-12.5-20.3-26.2-29.1-37.3C1504.8,725.4,1366,747.2,1357.8,690.2z
		 M1523.2,618c5.8,6,12.5,11.6,16.8,19c4.6,7.7,21.8,46.7,19.2,54.2c-40.6-16.6-73.9-34.6-119.8-25.5
		c-50.3,9.9-125.3,18.1-149.4-40.9c-5.8-14.2-16.6-65-17.3-66.7c0.5-9.1,0.2-18.5,1.9-27.7c5.8,6.7,9.3,15.4,17.5,19.7
		c9.9,10.4,23.1,18.5,36.6,22.2c59.2,16.8,133.5-25.5,181.4,28.9C1514.8,606.4,1518.5,612.7,1523.2,618L1523.2,618z M1282.5,507.5
		c0.2-3.6-4.3-6.3-2.8-9.7c10.8-23.8,24.6-40.9,31.3-67.4c12.5-50.3,3.4-54.4,0-100c24.8-11.3,74.1,39.3,76.7,63
		c-2.2,14.5-4.1,28.9-4.6,43.4C1381.8,480.4,1327.4,556.4,1282.5,507.5L1282.5,507.5z M1586.5,342.8c13.2,10.1,27.7,16.6,40.9,26.2
		l-2.4,1.9c-35.2,15.4-80.7,36.3-119.8,20.9c-33.5,6.5-54.6,13.2-79,38.7c-8.9,6.7-15.6,15.9-25.9,20.3c6-37.8,3.9-79.2,17.1-115.5
		C1457.8,226.6,1527.6,298.7,1586.5,342.8L1586.5,342.8z M1321.4,223.2c2.4-4.1,3.6-8.6,6.3-12.5c3.9,1.5,6.3,6.3,8.9,9.3
		c28.6,30,76.5,16.8,96.7,52.5c-0.2,0.2-1.7,2.6-0.9,2.8c-16.2,12.3-28.9,32.4-32.3,52.5l-8.4,21.6c-3.9,0.9-5.8-2.4-8.2-4.8
		c-14.5-14.7-46.9-32.4-67.8-34.4c-10.1-0.9-20.7,1.9-30.8-0.9C1219.9,290.3,1309.9,241.5,1321.4,223.2L1321.4,223.2z M1252.9,253.4
		l0.7,1.7c-5,14.2-10.4,15.1-10.4,33.2c0,17.3,28.6,47.3,46.4,42.3c23.1,31.3-1.9,111.4-18.1,142.5c-11.5,13.4-38.5,6.9-48.4-5.2
		c-1.7-4.1-5.3-7.2-7.4-11.3c-7.7-18.3-20.3-28.3-39.3-33.7c-13.2-6-26.5,1.7-35.6-15.6c-6.9-12.3-11.6-27-20.7-38.5
		c-17.3-22.2-67.6-23.1-71.5-34.6C1120.1,289.3,1163.1,239.3,1252.9,253.4L1252.9,253.4z M1040.2,361.8c1.3-2.8,3.9-1.5,6-0.5
		c12.1,4.8,22.9,6.3,35.6,9.3c31.1,7.2,36.3,44,60.4,67.4c7.2,6.9,19,4.3,27.9,5.2l-1.9,4.8c-19.7,14-55.3,23.6-68.6-6.7
		c-9.1-20.5-49.6-11.3-57.7-52C1040.4,382.5,1037.2,368.7,1040.2,361.8z M1021.2,349.5l0.2,9.9c0,2.2-2.2,2.8-3.1,4.1
		c-1.9-0.9-5-2.6-7.7-3.9c-2.8-0.9-5.2-2.6-7.2-3.6C1008.7,353.4,1015.1,351.9,1021.2,349.5z M865.3,404.6c8-3.9,7.4-16.4,2.6-22.1
		c0.7-9.3,0.2-16.8,1.9-26.2l0.2-1.9c6.5-21.2,17.5-27.9,33.5-40.6c5.6,5.2,6.9,13.2,13,18.3c20.5,17.1,43,22.2,63.5,36.1
		c5.3,4.3,34.1,16.4,41.2,17.9c2.4,11,3.6,23.6,10.8,32.7c18.3,21.6,25.7,22.9,48.8,33.5c15.9,29.6,54.2,42.8,82.7,23.1
		c3.9-2.6,22.2-17.5,23.6-18.1c5.8,6.3,18.5,7.7,17.9,18.3c12.7,24,32.4,31.1,58.5,28.1c0.7,3,0.3,6.1-0.9,8.9
		c-0.2,4.3-1.5,8.2-2.4,12.3c-8.2,38.2,6.7,108,34.1,137.1c15.6,16.6,28.6,19.7,49.8,26.2c-2.2,4.1,2.4,9.7-1.9,11.8
		c-52.7-7.4-79.7-51.4-85.5-52.9c-5.8-6-11.3-12.7-9.7-21.4c8-72.9-94.8-83-130.9-33.9c-5,6.9-35.6-4.8-44.5-8
		c-7.7-15.9-46.9-32-62.8-40.6c1.7-59.9-84-146.8-144.6-105.8c-2.4,5.6-11.5,13.2-15.1,20.3c0,0-28.4-15.1-36.5-16.6l-2.2-3.6
		C829.4,419,842.4,414.7,865.3,404.6L865.3,404.6z M1038.2,604.7c18.3-3.4,38.5-0.5,55.5,6.9c8.2,3.4,13,19.5,23.1,8.9
		c3.6-3.9,6.5-8.4,9.7-12.7c15.4-20.7,64.3-37.8,85.1-18.5c2.8,2.6,11.3,10.6,9.9,15.1c-0.2,0.7-1.3,0.7-1.9,0.7l-0.7,1.3
		c-7.2-2.2-14.9,0.5-22.2,2.4c-82,22.4-43.8,119.6-182.6,64.7c-7.4-2.8-39-17.3-43.6-21.6C992.7,634.7,1009.1,610.3,1038.2,604.7
		L1038.2,604.7z M969.4,627.6c-21.8,13-86.8-23.6-114.5-28.4c9.1-14.9,42.1-33.5,59.6-31.5c23.8,2.6,68-14.2,85.9-6
		c14.2,6.3,27.9,13,40.9,21.6C985.8,599.3,1000.7,609.1,969.4,627.6L969.4,627.6z M849.1,503.7l-4.8,1.3
		c-19-4.1-36.9-12.5-56.1-14.7c-47.7-5.3-103.2,0.7-147.7,18.5c-21.2,8.4-41.2,21.8-62.4,30.5C596.3,497,822.4,398.5,849.1,503.7
		L849.1,503.7z M783,508c14.2,1.3,61.8,18.3,66.1,18l0.7,4.3c-52,89.4-158.1,67.4-245.5,62.6c-19.9-0.9-39.5-0.2-59.4-0.2
		C614.5,530.4,687.6,500.2,783,508L783,508z M348.9,820.8c0-36.5,26.5-74.3,46.7-102.8c27.2-37.8,84-83.1,127.3-100.1
		c93.3-36.8,264.5,64.5,339.2-76.2c-0.5-13,8.6-26.5,5.8-41.4c-1.9-11.8-8.9-20.5-10.8-30.8c13.2-1.3,13.8-19.5,28.1-21.4
		c54.8-8,91.1,45.5,105.6,91.4c-20.9,0-40.9,9.1-61.3,9.7c-37.1,0.7-71,7.7-94.6,41.2c-3.1,1.5-19.7,21.4-20.5,24.8
		c-5.8,4.1,1.5,14.5,8.6,13c14.7-2.6,24-9.9,39.9-6c23.3,5.3,43.6,19.7,66.9,25.5c0,5.8,2.6,14.5,8.6,17.1
		c13.2,5.6,28.9,6.3,42.1,14.2c36.5,22.2,108,50.8,144.6,17.5c13.2-12.1,86.4-99.8,104.9-58.7l-2.2,8
		c-14.2,58.5-62.4,115.5-129.5,106.6c-84.4-10.8-119.4-90.9-223.5-44.5c-61.3,27.7-89,89.8-165.8,75.3c-12.7-2.2-27.9-6.9-37.3-16.4
		c18.8-51.2,37.3-92.2,89.2-117.4c11.8-5.6,31.3-15.6,44.7-13.8c3.1-1.9,3.1-6.9,2.4-10.1l-6-5.2c-25,1.9-34.4,11-55.1,16.2
		c-8.6,9.1-25.5,10.6-36.5,18.1c-2.8,2.2-22.4,11.3-25.5,11.3c-35.4,0-54.8-21.8-102.8-12.5c-14.2,2.8-33.5,5.8-46,13.2
		c-32,19.2-63.5,35.2-94.6,56.6C411.9,743.3,354,818,348.9,820.8L348.9,820.8z M446.3,889.9c-8.2,0.7-19,1.5-23.1-6.7
		c-6.7-8.9-7.4-21.6-8.4-32.8c6.3-3.4,8.4-10.4,14.2-14.5c3.6-3.1,6-7.5,8.6-11.5c4.6-2.8,4.1-8,8.6-10.1
		c-6.3,14.9-6.7,30.8-6.7,46.2C440.1,871.1,444.1,879.5,446.3,889.9L446.3,889.9z M463.7,865.8c-10.6-67.6,40.4-56.1,50.3-65.4
		c8.9,8.6,12.1,20.3,23.3,28.1c-31.1-17.3-63,28.9-40.4,35.2c12.1,3.4,15.9-20.9,29.8-13.2c18.5,10.4-10.6,44.9-33.5,42.8
		C480.5,892.1,465.9,878.9,463.7,865.8L463.7,865.8z M505.6,776.1c-14,3.4-28.7,6.7-39,17.1c-1.9-0.9-1.9,2.2-2.2,1.3
		c5.6-9.1,14-17.1,21.2-24.8c6.5-3.9,11.8-11,18.1-15.9l0.2,0.2C503.6,761.4,503.6,768.6,505.6,776.1L505.6,776.1z M487,916.1
		c50.1,5.8,78.2-43,52.7-84.9c19,10.6,55.1,23.6,60.2,46C621,971.5,488.2,980.6,487,916.1z M612.7,1041.9
		c-32.8,9.3-84.2-25.9-78.2-61.8c76.5,12.7,113.1-104.7,61.3-142.5c-18.5-13.4-44-18.1-58.5-37.1c-52.5-68.8,42.1-82.3,43.8-88.3
		c0.9-3.4-0.7-10.4-3.4-12.5c-18.8-15.8-102.1,50.1-117.9,63.7c-1.9,6-8.9,8.4-11,14.2c-29.1,25.3-51.5,80.1-98,82
		c34.7-74.5,184.3-203.4,270.9-188.4c22.4,3.9,48.8,15.1,71,14.7v2.4c-8.6,10.1-35.4,63.5-34.9,76.2c-17.3,14,22.6,30.5,30.8,33.7
		c3.1,8,10.8,12.1,15.9,18.3c-47.9,10.1-59.6-62.6-85.9-34.8c-10.6,11.3-6.3,19.5-9.7,33c-1.7,11.8,9.9,28.7,15.4,38
		c14.5,12.7,19.9,31.5,30.5,46.9c0.9,32.4,19.9,31.3,0.5,85.5c-1.7,4.8-5.3,9.3-5.3,14.7C640.3,1013.3,629.7,1037.2,612.7,1041.9
		L612.7,1041.9z M691.5,1130.7c-17.8-17.3-57.5-53.9-49.6-83.8c2.4-8.2,19.9-25.5,25-40.4c12.1-34.9,20.9-60.9,9.3-98
		c-11.3-35.6-37.1-59.4-48.6-92.9c2.6-6,0.7-13.2,5-18.5l2.2-2.6c10.6,10.8,13,23.8,27.4,32.8c15.9,9.9,44.9,17.3,60.9,3.9
		c33.9,20,96,24.6,130.4,3.4h1.5c-6.3,34.6-11,46.9-0.5,82.5c-51,14-71.2,93.1-25.5,107.3c4.1,7.4,14,5.2,20.7,7.7
		c0.5,4.3-6.7,13.8-8.9,17.3c-13.4,22.9-12.3,71.7-51,72.7c-29.6,0.7-23.1-76-62.8-61.6c-44.7,16.2-8.4,70.4,29.8,73.6
		c4.1,0.5,7.7-0.9,11.8-0.5c0.9,21.2-22.1,39.3-41.6,27.2C703.1,1161.8,703.8,1142.8,691.5,1130.7L691.5,1130.7z M750,1111.9
		c-1,1.5-3.4,0.9-4.6,0.5c-9.3-5.2-14.7-14.9-18.8-25c1.3-5.3,4.8-7.5,9.1-10.6c8.4,1.7,6.5,12.5,9.7,18.8
		C746.4,1101.1,747.8,1106.7,750,1111.9z M737,1224.1c-0.9,2.2-1.9,4.2-3.1,6.3c-0.9,1.9-1.5,3.6-3.1,4.1c-0.2-0.7-3.6-3.1-3.6-6
		c-4.6-12.1-3.1-28.9,3.4-41.6c0.2-2.5,1.4-4.8,3.1-6.5c10.6-1.5,23.6,1.7,33.9-2.8c8-4.6,13-11.3,17.1-20c0.2-2.4,1.9-3.4,2.6-5.6
		c1.7-0.2,1.9-2.4,2.6-4.1c0.2-3.1-1.3-7.4,1.5-8.9c12.5-1.7,25.9-2.8,34.7-12.1c14-12.3,22.4-30.3,27.9-47.3
		c1.9-1.7,2.2-4.8,3.1-7.5c0.7-1.5,1.9,1.3,1.9-0.7c0.5,4.3,3.1,6.5,3.6,10.8c0.9,13.4-0.7,23.3-6,33.7c-6.7,11-20.5,19.5-28.1,30.8
		c-5.6,6.3-13.7,9.3-19.9,13.8c-13.2,10.7-26.9,20.9-40.6,30.8C757.4,1201.7,745.9,1212.5,737,1224.1L737,1224.1z M773.8,1254.2
		c-2.8,5.2-3.1,12.1-6.3,16.8c-0.5,2.2-0.9,5-2.2,6.3c-3.1,0.9-6.7-0.9-9.1-2.4c-1.5-2.8-2.8-3.2-3.4-6.9
		c-3.9-6.8-5.3-14.8-4.3-22.6c6.3-18.3,21.6-28.3,34.4-41.6c13.4-10.1,27.7-20.7,40.4-31.3c5.8-1.7,8.4-6.5,13.7-9.1
		c11.3-10.4,19.5-19,30-30.6c4.3-4.8,7.7-11.3,10.4-16.6c8-0.5,10.1,6.5,13.4,11.3c4.6,11.5,6,25.3-0.5,36.1
		c-0.9,1.5-3.1,1.9-2.8,3.6c-10.8,13.2-28.6,17.1-43.8,25.5c-13,5.3-27,11-35.8,21.2C794.5,1226.1,778.1,1235.4,773.8,1254.2
		L773.8,1254.2z M788,1325.2c-0.9-3.1-1.5-6.5-3.4-8.9c-0.7-9.3-3.9-18.3-1.7-27.2c0.7-7.5,4.8-13.2,5.2-20.5
		c0.7-0.7,1.7-0.7,1.7-1.7c1.9-2.6,2.2-6.7,4.1-9.7c13.4-18.5,32.4-37.1,54.4-46.2c13-4.8,23.3-11.8,36.1-16.8
		c1.5-3.4,6-2.8,7.4-5.6c4.1-2.8,5.6-7.2,9.7-9.3c1.7,1.5,2.4,4.6,4.1,7.2c1.9,12.3,6.3,23.8,9.9,35.6c1.7,8,6.3,15.9,2.8,24.6
		c-0.7,7.2-1.7,14.9-6.5,20c-4.1,6.9-9.3,10.6-16.8,14c0.2,2.2-3.1,1.9-4.1,3.6c-27.3,18.3-49.7,43.1-65.2,72.1v2.2
		c-0.7,1.3-1.9,3.2-2.6,4.6c-2.5,6-4.2,12.3-5.3,18.8c-0.9,0.2-0.9,1.5-1.9,1.5c0.5,0.9-1.5,0.2-0.2,1.7c-3.6-3.1-3.4-8-5-13.2
		c-2.6-8,0.9-21.6-10.1-25.5C794.5,1340.5,790.3,1333.1,788,1325.2L788,1325.2z M1164.8,1607.4c-11,0.9-21.2,6.9-31.1,11
		c-8.2,5.2-18.8,7.7-27.2,13.2c-12.7,4.3-23.8,12.7-34.1,19.7c-9.3,3.9-17.3,10.1-27.4,13c0.5,0.9-1.3,0.9-1.9,0.9
		c-9.1,4.1-16.4,9.4-25.7,12.5c-3.1,2.5-6.7,4.3-10.6,5.3c-3.4,0.5-6.5,2.2-10.1,2.8c-2.6,1.5-6.7-0.2-9.1,1.7
		c-9.7,0.7-18.3,4.6-27.4,6.7c-2.4,1-5.8,3.6-4.3,6.7c0.2,0.7,1.3,1.3,1.9,0.7c5.6,4.6,13.2,5.8,20.9,4.6
		c13.2-2.2,28.9-4.1,39.7-10.1c17.3-9.3,35.2-17.1,52.9-25.5c3.1-0.5,6.3-4.3,9.7-4.3c2.2-2.2,5.6-3.1,8.2-6
		c17.5-12.7,40.4-20.3,59.6-31.1c4.6-0.2,8.2-4.1,13-3.4c0.7,1.5-2.2,2.4-0.9,4.6c-2.2,4.1-4.3,8.9-2.4,12.3v6.5
		c-10.4,2.8-20.3,8.2-30.6,9.9c-10.1,4.1-20.3,9.3-29.8,14.5c-0.9,2.4-5.6,2.4-6.7,4.6c-15.6,7.3-27.2,17.1-42.1,24.6
		c-0.9,2.8-4.3,1.9-5.6,3.6c-5.6,2.8-12.3,7.7-17.9,8.9c-8.6,5.2-16.4,7.2-26.2,10.6c-23.3,6.5-48.1,6.7-72.9,1.9
		c-9.9-1-19.9-7.5-30-11.4c-12.1-9.9-28.7-15.4-35.4-30.8c-4.1-3.6-6.9-9.3-11.8-12.1c-0.2-2.6-2.6-3.4-2.8-5.3
		c-8.6-8.6-8.9-23.3-12.5-34.8c0.5-14.5-5.8-29.8-1.5-43.8c0.7-8.2,1.3-18.1,3.6-26.2c2.6-11.6,4.1-23.6,6-34.8
		c1.7-0.5,0.2-3.2,1.3-4.3c0-5.2,2.6-9.7,2.2-14.9c1.7-2.4,1.7-5.1,1.9-8.2c0.7-0.2,1.7-0.5,1.7-1.3c2.8,2.4,6.9,7.7,12.1,6.5
		c3.1-1.3,5.6-5.3,5.6-8.9c-0.2-0.7-1.5-1.9,0-2.2c-1.3-1.7-0.2-5.3-2.2-5.8c-2.4-18.3-23.6-29.4-39.7-38.7
		c-17.5-8.2-31.5-23.3-30.8-45.2c0-3.3,0.2-7.7,1.3-11.5c0.2,0.9,1.9-0.2,1.9,1.5c1.7,6.7,7.7,16.2,14.5,22.6
		c5.2,3.4,8,8.6,14.2,10.4c10.8,9.1,25.9,12.1,33.2,25.5c5.8,7.5,9.7,15.1,13,23.8c2.6,11,2.8,20.9,4.1,31.5
		c0.7,10.6,2.4,22.6,0,34.1c0,2.6,0.2,5-0.2,8c-3.6,1.5,0.5,4.8,0.2,7.5c-0.7,6-0.2,13.5-1.5,19.5c2.4,20.5-5.3,42.6,2.6,61.6
		c-0.5,5,4.1,7.7,2.8,13.4c3.1,5.6,4.3,12.1,10.4,15.9c1.3,2.2,1.3,5.6,4.6,4.8c2.8,1.9,3.6,5.3,7.4,5.3c8.4,0.9,16.8,4.3,25.5,4.1
		c31.1-5.6,58-23.3,86.6-35.2c20.7-12.7,41.4-25.7,63.3-35.4c17.1-11.3,36.8-16.6,55.5-25.3c9.9-3.9,20.3-4.8,30.3-8.2
		c10.6,0.7,23.3-3.2,33.5,2.6c6.3,1.3,11.5,4.6,18.1,6.7c-0.5,7.3,1.5,15.7,2.2,21.8C1198.7,1614.3,1183.6,1603.1,1164.8,1607.4
		L1164.8,1607.4z M1200,1678.2c-4.6-2.4-9.1-6.3-11.7-10.8c-6.7-7.2-10.8-16.4-11.6-26.2c13.4-10.6,32.8-9.1,49.8-7.2
		c3.9,5,4.3,11.8,9.3,15.9c0.7,1.9,2.8,3.9,4.1,5.6c5.2,7.7,12.1,13.8,19,20.5C1241.8,1686,1217,1685.6,1200,1678.2L1200,1678.2z
		 M1348.6,1659.8c-2.4,2.6-3.6,5.8-4.6,9.2c-5.3,6-12.5,10.1-20.9,9.7c-25.9-0.8-48.8-12.3-65.9-31.1c-9.3-8.6-15.1-18.3-19-30.8
		c-2.4-7.2-7.7-16.4-2.6-23.3c9.9-2.4,19.9-2.2,28.9,2.4c2.4-0.7,2.2,1.9,4.6,1.5c16.8,7.5,26.5,29.1,43.6,37.3
		c1.5,1.9,3.2,3.2,5.3,4.3c10.4,5.3,21.2,10.8,32.2,14.9C1351.1,1655.3,1348.3,1657.7,1348.6,1659.8L1348.6,1659.8z M1684.3,1448.7
		c-8.4,10.8-11.3,22.6-16.4,34.9c-0.9,9.6-6.5,18.5-2.6,28.9c2.2,23.6-1.7,44.5-1.9,69.1c-1.9,17.1-6.7,32.8-10.4,48.6
		c-5.3,12.1-8,25-16.8,35.4c-3.9,13.8-14.2,23.3-25,32.8c-6.5,5.3-14.5,8.4-20.7,13.4c-17.5,8.2-39.5,13.2-60.7,9.9
		c-18.1,1-35.2-5.2-54.2-7.4c-14.2-5.6-29.8-11.6-43.4-18.1c-8.9-6.3-19.7-12.5-26.5-20.3c-13-10.1-23.3-25.3-39.5-31.5
		c-12.5-9.7-22.9-17.8-37.3-22.6c-2.2-1.3-3.4-3.4-4.6-3.9c0.5-1.7,3.9-0.2,6.5-0.2c4.1-2.4,8.6,2.2,13.8,1.1
		c1.1,2.2,2.4,0.8,3.9,1.7c10.6,3.1,19.5,6.9,29.1,12.3c2.2,0.9,4.1,5,7.3,5.2c4.3,6.3,11.3,10.4,18.5,14.2
		c7.5,6.5,14.9,11,23.1,16.2c7.7,6.5,18.1,11.8,25.9,17.3c6,1.3,9.9,6,16.4,6.9c25,10.1,52.5,18.5,81.6,16.6
		c8,0.7,16.6,0.9,24.1-2.8c6-6.7,16.6-9.2,16.6-19c-6.5-5.2-12.5,3.4-19.8,1.3c-20.5,3.6-40.6,1.5-59.6-3.1c-8-0.2-15.1-4.1-23.1-6
		c-6.7-3.4-14.9-5.3-22.4-9.7c-12.7-6.6-25-14.2-36.6-22.9c-8.6-6.3-17.9-11.3-25.5-18.1c-7.2-5.8-14.7-12.5-22.9-15.6
		c-15.4-8.4-33.2-14.7-51.4-14c-9.1,0-17.9-0.7-25.3,3.4c-3.4-1.7-6.9-4.3-8.6-7.2c0,0.2-0.7-1.3,0-1.9c8-3.1,15.9-6.7,24.6-7.7
		c7.2-4.3,16.8-4.1,24.6-6.3c20-2.4,37.3,4.1,55.5,8.6c20.5,8,40.9,17.3,60.2,26.5c31.1,13.4,57.2,35.6,92.2,41.4
		c-0.2,1,0.5,1.5,0.9,1.7c2.6,0,4.8,0,6.9,0.2c3.9,0.2,6.7,2.4,10.1,0c3.1,0.9,7.4-1.3,10.6-2.2c6.5-1.5,14.9-1.5,18.5-8.4
		c3.6-9.9,10.6-18.1,15.1-27.4c2.6-3.9,0.7-10.6,5.3-14.2c6.9-23.3,7.5-49.8,9.7-75.1c-1.7-4.3-0.7-9.9,0-15.1
		c1.3-5.6,0.5-10.8,0.5-16.6c1.9-4.3,2.6-8.9,3.9-13.2c2.2-15.9,10.6-29.4,17.3-43.4c5-11.5,7.7-24,11.6-35.8
		c0.2-2.6,0.2-4.6,3.3-6.3c3.9-5.5,8.2-13,14.5-15.4c8.6-8.2,16.2-14.5,24.2-22.1c0.7,2.2,1.7,5.2,1.7,7.4
		C1712.4,1400.4,1699.2,1425.8,1684.3,1448.7L1684.3,1448.7z M1705,1329.3c-4.8,6.3-8.9,14.5-13.8,20.5c-5.3,4.1-10.8,8.4-15.9,13
		c-1.3-1.9,0.5-3.9-0.5-6.9c-0.9-7.7-3.9-15.1-5.6-23.1c-5.8-20.3-21.8-35.6-34.8-51c-17.5-18.5-35.2-38-45.4-61.6
		c-5.1-8.9-7.3-19.2-8.6-30.5c4.8-21.4,9.9-42.8,13-65.2c1.1-9.3,4.1-19,3.4-28.4c-0.2-0.5,1.7-1.3,0-1.5c0.9,0,1.7-0.9,0.9-1.9
		l0.7,0.9v2.2c0.5,7.2,2.6,12.7,3.6,19c2.6,6.7,0.7,11.8,5,18c0.2,5.6,3.2,10.1,4.6,15.4c4.3,12.3,14.7,23.3,23.8,33.2
		c6,6.5,12.1,13.4,19.2,18.3c12.3,14.2,27.7,27.9,40.2,43.6c8.4,9.3,14.5,20.3,18.8,32C1721.6,1292.6,1718.2,1316.2,1705,1329.3
		L1705,1329.3z M1705,1073.7c-1,3.6,2.6,10.6-3.4,10.6c-17.1,0-35.8-16.2-49.6-25.5c-9.3,5.3-19.5,34.7-18.8,45.5
		c0,9.1-4.6,19.2-3.6,29.4c-0.9,0.5-0.5,1.9-1.5,2.4c-21.2-29.1,3.2-100.1-18.3-127.6c14.2-30.3,19.2-19.7,31.1-33.7
		c37.6,0,58,17.5,75.6,48.4c-6.3,6.7-7.7,17.1-16.2,21.6C1698.5,1053.8,1700.6,1065.7,1705,1073.7L1705,1073.7z M1728.3,1260.2
		c-0.5-0.5-1.7-0.5-2.4-0.8c-7.2-21.2-45.5-58.3-62.4-75.6c-0.9-8.6-19-39.5-12.7-46C1680.4,1171.9,1739.8,1206,1728.3,1260.2z
		 M1727.8,1190.4c-10.8-24.6-50.5-41.6-69.1-79.2c0.5-6-2.4-9.3,0-15.4c2.2-5.6-5.3-5.2-2.6-10.4c12.1,2.4,21.2,12.7,33.5,15.9
		c9.4,2.6,18.5,0.9,28.1,2.4c11.8-7.7,4.1-21.2,7.5-31.1c43.4,8,34.7,67.4,41.4,97.4c3.4,15.1,12.1,23.1,16.8,35.8
		C1766.8,1209.9,1735,1207,1727.8,1190.4L1727.8,1190.4z M1846,1054.4c-5,27.2-21.2,48.4-26.2,73.4c-3.6,25.5-25.9,45.3-12.1,72.7
		c-24.8-2.8-24.2-71.7-27.7-89.2c-2.2-11-5.8-21.2-12.5-30.3c-5-6.9-22.2-19.7-30.5-22.6c-6.9-2.6-13-1.7-18.1-6.3
		c3.4-8.6,10.1-15.6,14.2-24c14.7-30.6-11.3-39.9,28.1-64.3C1808.6,949.3,1855.8,1006.3,1846,1054.4L1846,1054.4z M1755.7,946
		c-7.3,5.8-14,5.6-19.5,14c-3.2,4.6-6.5,10.4-10.4,14c0.7,2.4-0.7,4.6-2.8,5.3l-2.6,4.3l-2.8,5.2c-3.9-0.5-8.9-5-11.6-7.7
		c-7.7-13.2-55.8-27.7-70-24.2c-8.6,2.2-25.3,19-32.8,24.6l-2.6-0.9l-0.7-4.3l-0.2,2.2c-2.6-28.9-6-100.4-14-125.2
		c1.9-1.9,3.6-4.8,3.6-7.7c4.8,1.3,8.2,5.8,13.4,5.6c28,17.5,76.6,9.1,94.8-19c3.6,0.9,8.6,2.8,10.4,6.7
		c12.7,8.2,18.3,23.6,25.3,36.5c-1.1,5.8,3.9,10.1,3.4,15.6l5.3,4.6c9.9-3.1,10.6-15.4,17.3-22.2c4.6-22.1,2.6-34.1-4.6-55.5
		c13-0.9,38.7,18.3,38.2,31.7c-0.9,23.8,23.1,90,48.1,95.2c2.4,3.1,7.2,1.7,8.9,5.6c6.3,2.8,13.8,1.9,20.5,4.1
		c5.3-2.4,11.6,0.5,16.8-2.6C1851.4,1007.8,1802.2,923.8,1755.7,946L1755.7,946z M1983.1,875.9c-13,4.1-19.5-21.2-35.4-23.1
		c-8.4-0.9-25.7,6.7-28.7,14.9c-4.6,13.2,0.5,37.1-8.6,48.4c-28.9,35.2-75.1,24.8-90.2-16.8c-5.8-15.9-11.4-19.5-11.6-37.8
		c32.4,6,38.5,13.2,71-5.6c26.5-15.4,70.7-66.5,103.2-46.4c5.3-0.7,18.3,26.7,20.9,31.7C2000.2,854.5,2006.9,873.3,1983.1,875.9z
		 M2134.2,896.4c-26.5-3.4-18.1-12.3-48.4-9.3l-5.5,0.7c-39.3-1.5-100.4-120.5-116.8-152.8c-13.4-26.5-51.4-38.5-60.9-48.8
		c6-2.4,39.1-27.7,37.8-31.7c-38.2-22.2-37.3-37.8-65.2-59.6c54.2,9.7,113.6,93.9,139.5,141c10.6,18.8,35.2,44.5,42.3,62.6
		c15.1,11,27.4,28.9,42.1,41.6c15.9,11.8,31.3,24.6,46.7,36.5C2156.1,884.6,2143.8,897.6,2134.2,896.4L2134.2,896.4z M2157.1,864.4
		c-4.1-0.9-31.5-25.5-35.6-30c-3.2-3.6-9.1-2.4-11.6-6.9c-3.9-1.3-6.5-4.6-10.1-6.5c-3.4-5.6-9.9-8.2-12.7-14.5
		c-21.2-12.7-25.9-38.7-43.8-52c-1.3-2.8-22.4-37.3-24.6-39.7c-1.3-6.9-10.6-8.6-9.7-16.6c-7.5-6-6.7-19.7-17.5-22.4
		c-32.4-44-62.6-76.7-116.8-92.4c-14.9-4.3-25.9-7.4-40.6-14c-29.6-9.7-54.2-13.4-85-14c-47.7-0.9-102.4-16.8-141-14
		c-26.5,1.9-95.5,28.9-104.9,28.1c-7.7,4.1-13.4-3.6-20.3-6.3c-33.9-12.5-170.6,10.8-179.7-27.9c6.7,3.4,15.1,2.6,22.4,2.4
		c46.2-0.9,89.8-38.5,136.9-47.7c41-7.7,63.5,30.5,124.2-6.9c142.7,130.2,289.9-10.8,497.1,211c43.8,46.4,70.4,97.4,74.9,162.4
		L2157.1,864.4L2157.1,864.4z M1487.9,2143.6l48.2,83.2c7.3,12.1,14.5,23.7,20.6,36.1l-86.7,19.2l0.5-3l8.4-65.4L1487.9,2143.6
		L1487.9,2143.6z M1709,2384.8c-17.4-29.4-34.1-58.3-51.4-87.6l-38.2-64.2l-50.5-86.1l-37.2-62.1l-12.9-21.8l-2.5-3.4l-51.8,11.5
		l-0.1,2.3c-3.8,29.5-7.6,58.4-11.4,87.8l-12.9,99.6l-10.7,83.6c-4.2,35.3-9.1,70.1-13.8,105.5l33.2-7.4c2.5-17.2,4.9-34.8,6.5-50.6
		l9.2-69.6l0.9-3.6l109.7-24.2c21.2,36,40.5,71.7,61.9,106.5L1709,2384.8L1709,2384.8z M986.2,2090.4c23.7,6.6,52.5,8.6,64.7,32.7
		c5.2,9.8,7.9,20.7,8.2,31.7c0.2,8.9-0.7,17.8-2.6,26.4c-3.1,10.8-7.4,19.5-11.3,28.9c-9.6,16.7-27.2,33.3-47.8,36.1
		c-15.5,2.7-30.8-3.1-47.3-6.3l34.9-149.6L986.2,2090.4L986.2,2090.4z M1042,2277.1c15.2-4,30.2-9.1,42.8-18.9
		c30.7-21.6,44.8-63,42-100.5c-5.3-51.7-54.3-76.1-100.5-86.7l-105.1-24.1l-80.3,350.3l69.8,16l33.7-147l29.9,6.8l-0.1,0.6
		l21.3,97.2l14.3,65.2l69.8,15.9c-11.9-57.8-25.7-115.4-37.8-172.6C1041.5,2279.2,1040.9,2277.3,1042,2277.1L1042,2277.1z
		 M724.2,2135.2l51.3-114.1l106.1,47.7l14.2-31.6l-170.7-76.7l-147.4,327.7l169.2,76l14.2-31.6l-104.5-47l53.4-118.8l82.6,37.1
		l14.2-31.6L724.2,2135.2L724.2,2135.2z M407.6,2182.8c37.3-28.9,78.2-60.8,116.3-89.8l66.5-52l109.5-85l3.5-3l-27.7-19.9
		l-73.7,58.4l-77.2,62.1l-76.2,60.8c-0.5-0.3-0.9,1.4-1.3-0.2l30.5-75.8c16-39.5,31.7-78.4,48.1-117.6l30-74.1l-59.4-42.8
		c-6.4,17.5-13.7,36.3-20.7,54.6l-23.8,62.7l-5.5,13.3l-38,98.7l-31.3,83.5c-4.4,11.5-8.8,23.2-12.7,34.8L407.6,2182.8L407.6,2182.8
		z M1723.9,1975.6c-24.1,10.5-47.8,24.5-65.1,43.4c-19.3,19.9-30.5,49.5-29.8,77.9c0.2,45.7,19.6,91,42.2,132.9
		c21.8,39,47.1,73.7,85.3,93.2c36.4,18.4,77.4,13.8,113.7-4.8c25.6-13.8,50.8-29.7,65.2-54.1c15.2-26.6,13.4-58.4-1-85.5l-40.7,20.8
		c10.9,22.6,14.1,46.1,3.1,68.7c-4.1,9-13.1,16.2-22.1,22c-8,4.1-16.2,7.6-24.9,9c-37.7,6-63.5-25.9-83.5-52.7
		c-26.1-38.7-48-82.7-65.4-126.7c-9.8-27.7-18.8-55.1-14-83.9c2.8-15.2,13.2-25.6,27-33.2c8.4-4.3,16.7-5.3,24.7-5.7
		c11.5,0.5,21.5,6.6,29.4,13.2c13.1,12.2,23.2,27.1,31.6,43.5l56.8-29c-14.6-29.6-39-54.2-72.5-58.3c-5.5-1-10.9-0.7-16-0.6
		c-10,0.1-19,2.2-28.2,5L1723.9,1975.6L1723.9,1975.6z M1365.2,2133.9c-15.7-14.6-34.7-28-53.6-35.7c-14.6-6.1-31.3-6.7-47.5-6.7
		c-16.7,0.6-32.4,4-47,10.6c-33,12.9-55.9,46.4-59.7,82.2c-4.4,35.7,1.1,73.7,27.4,97.3c28.4,26.9,70.4,24,102.8,41.9
		c21.3,10,37.4,30.7,36.3,54.2c0.6,9.6-1.7,18.4-4.6,26.9c-5.6,13.4-18.4,22.3-30.7,27.4c-2.8,1.1-6.1,1.1-8.4,2.2
		c-9.4,1.7-20.7,1.7-30.2-1.1c-28.4-7.3-50.3-34-63.2-59.3l-41.3,40.3c19.6,24.6,48.6,40.9,78.7,45.9c13.4,2.8,30.2,4.4,46.4,3.9
		c42.4-0.6,83.9-23.4,99.5-63.2c14.6-33,15.7-79.3-2.2-111.2c-16.7-28.6-48.6-41.9-78.7-49.7c-31.3-9.6-74.3-17.9-81.6-55.9
		c-1.1-11.7-0.6-24.6,3.9-34.7c8.4-19.6,28-26.3,48-26.9c31.3-2.2,52,27.4,66.5,50.3L1365.2,2133.9L1365.2,2133.9z M2055.6,1954.1
		l20.5,27.9l-72.9,53.6l77,104.9l92.3-67.8l20.5,28l-149.5,109.8l-212.7-289.6l150.9-110.8l20.5,27.9l-93.7,68.8l74.1,100.9
		L2055.6,1954.1L2055.6,1954.1z"/>
</g>
</svg>
